<svg width="68" height="70" viewBox="0 0 68 70" fill="none" xmlns="http://www.w3.org/2000/svg">
<path d="M52.1937 29.7175C55.4706 33.0863 56.4911 38.2035 54.467 42.5058C52.4186 46.8564 47.7996 49.4779 43.0185 49.0111C38.3196 48.5516 34.3342 45.0378 33.1855 40.4816C32.0464 35.9593 33.8965 31.0017 37.7707 28.3802C42.2906 25.3209 48.305 25.9328 52.1937 29.7175C53.5335 31.021 55.5867 28.9702 54.2469 27.6643C49.9906 23.5217 43.6811 22.3609 38.2519 24.7962C32.8372 27.2242 29.4056 33.1516 30.0198 39.0572C30.6341 44.9628 34.8566 50.0583 40.663 51.5214C46.4453 52.9772 52.5516 50.6217 55.9422 45.7439C59.8309 40.1503 58.9312 32.4768 54.2493 27.6619C52.941 26.3246 50.8902 28.3777 52.1937 29.7175Z" fill="#6F8BB5"/>
<path d="M52.1937 47.7947C56.4669 52.0679 60.7402 56.3411 65.0158 60.6168C66.3387 61.9396 68.3918 59.8864 67.069 58.5636C62.7958 54.2903 58.5225 50.0171 54.2469 45.7415C52.9241 44.4211 50.8709 46.4718 52.1937 47.7947Z" fill="#6F8BB5"/>
<path d="M23.1976 23.292C27.7151 23.292 32.2326 23.292 36.7501 23.292C38.6171 23.292 38.6195 20.3899 36.7501 20.3899C32.2326 20.3899 27.7151 20.3899 23.1976 20.3899C21.3307 20.3899 21.3283 23.292 23.1976 23.292Z" fill="#6F8BB5"/>
<path d="M9.08895 23.246C10.0781 24.1094 11.0672 24.9727 12.0563 25.8336C12.6149 26.3222 13.5653 26.4576 14.1095 25.8336C15.8362 23.8554 17.5604 21.8772 19.2871 19.899C20.5108 18.4964 18.4649 16.4359 17.234 17.8458C15.5073 19.824 13.783 21.8023 12.0563 23.7805C12.7407 23.7805 13.4251 23.7805 14.1095 23.7805C13.1203 22.9171 12.1312 22.0538 11.1421 21.1928C9.73949 19.9716 7.67905 22.0151 9.08895 23.246Z" fill="#6F8BB5"/>
<path d="M23.1976 39.1805C24.6196 39.1805 26.0416 39.1805 27.466 39.1805C29.333 39.1805 29.3354 36.2785 27.466 36.2785C26.044 36.2785 24.6221 36.2785 23.1976 36.2785C21.3307 36.2785 21.3283 39.1805 23.1976 39.1805Z" fill="#6F8BB5"/>
<path d="M9.08895 39.1346C10.0781 39.9979 11.0672 40.8613 12.0563 41.7222C12.6149 42.2107 13.5653 42.3461 14.1095 41.7222C15.8362 39.744 17.5604 37.7658 19.2871 35.7876C20.5108 34.3849 18.4649 32.3245 17.234 33.7344C15.5073 35.7126 13.783 37.6908 12.0563 39.669C12.7407 39.669 13.4251 39.669 14.1095 39.669C13.1203 38.8057 12.1312 37.9423 11.1421 37.0814C9.73949 35.8601 7.67905 37.9036 9.08895 39.1346Z" fill="#6F8BB5"/>
<path d="M23.1976 55.0691C27.7151 55.0691 32.2326 55.0691 36.7501 55.0691C38.6171 55.0691 38.6195 52.1671 36.7501 52.1671C32.2326 52.1671 27.7151 52.1671 23.1976 52.1671C21.3307 52.1671 21.3283 55.0691 23.1976 55.0691Z" fill="#6F8BB5"/>
<path d="M9.08895 55.0231C10.0781 55.8865 11.0672 56.7498 12.0563 57.6108C12.6149 58.0993 13.5653 58.2347 14.1095 57.6108C15.8362 55.6326 17.5604 53.6544 19.2871 51.6761C20.5108 50.2735 18.4649 48.2131 17.234 49.623C15.5073 51.6012 13.783 53.5794 12.0563 55.5576C12.7407 55.5576 13.4251 55.5576 14.1095 55.5576C13.1203 54.6942 12.1312 53.8309 11.1421 52.97C9.73949 51.7487 7.67905 53.7922 9.08895 55.0231Z" fill="#6F8BB5"/>
<path d="M54.0292 22.1384C54.0292 18.3803 54.0292 14.6197 54.0292 10.8616C54.0292 9.47832 54.2614 7.76855 53.814 6.42636C53.2263 4.66097 51.606 3.59206 49.7874 3.51225C49.1877 3.48565 48.5831 3.51225 47.9833 3.51225C45.8649 3.51225 43.744 3.51225 41.6255 3.51225C39.7585 3.51225 39.7561 6.41427 41.6255 6.41427C43.2651 6.41427 44.9024 6.41427 46.542 6.41427C47.7343 6.41427 50.7475 5.84838 51.1054 7.50011C51.3424 8.60046 51.1272 9.95232 51.1272 11.0648C51.1272 13.2945 51.1272 15.5242 51.1272 17.7563C51.1272 19.217 51.1272 20.6777 51.1272 22.1408C51.1272 24.0054 54.0292 24.0078 54.0292 22.1384Z" fill="#6F8BB5"/>
<path d="M12.4481 3.51225C10.0007 3.51225 7.5509 3.51225 5.10353 3.51225C3.68637 3.51225 2.35386 3.70088 1.28495 4.75529C0.426436 5.60171 0.0781934 6.72382 0.0419181 7.89914C-0.0523976 10.9825 0.0419181 14.0853 0.0419181 17.1687C0.0419181 29.3016 0.0419181 41.4368 0.0419181 53.5697C0.0419181 57.3399 0.0419181 61.1101 0.0419181 64.8804C0.0419181 66.9529 0.760169 68.9988 2.95603 69.7074C4.46025 70.1911 6.38284 69.9226 7.92816 69.9226C16.9825 69.9226 26.0344 69.9226 35.0887 69.9226C39.9592 69.9226 44.8637 70.0967 49.7318 69.9226C51.5722 69.8573 53.2142 68.7981 53.8116 67.0085C54.1066 66.1258 54.0268 65.1415 54.0268 64.2226C54.0268 61.2794 54.0268 58.3363 54.0268 55.3932C54.0268 54.7039 54.0268 54.0147 54.0268 53.3255C54.0268 51.4585 51.1248 51.4561 51.1248 53.3255C51.1248 55.4246 51.1248 57.5261 51.1248 59.6253C51.1248 61.0448 51.1248 62.4668 51.1248 63.8864C51.1248 64.5297 51.2433 65.3011 51.103 65.9396C50.7523 67.5309 48.0123 67.0254 46.8394 67.0254C44.0704 67.0254 41.299 67.0254 38.53 67.0254C29.8771 67.0254 21.2243 67.0254 12.569 67.0254C10.1772 67.0254 7.7879 67.0254 5.39615 67.0254C4.22567 67.0254 3.02375 67.0472 2.94394 65.5115C2.794 62.6289 2.94394 59.7002 2.94394 56.8151C2.94394 45.1514 2.94394 33.4853 2.94394 21.8216C2.94394 17.7346 2.94394 13.6476 2.94394 9.56055C2.94394 8.91727 2.82786 8.14582 2.96571 7.50737C3.2414 6.24499 4.54005 6.42153 5.51465 6.42153C6.97292 6.42153 8.43118 6.42153 9.88945 6.42153C10.7407 6.42153 11.592 6.42153 12.4432 6.42153C14.315 6.41427 14.3199 3.51225 12.4481 3.51225Z" fill="#6F8BB5"/>
<path d="M33.2749 7.03579C30.5252 7.03579 27.778 7.03579 25.0283 7.03579C22.3004 7.03579 17.8506 7.77581 17.2388 4.02978C17.0453 2.84479 17.7926 2.93427 18.6656 2.93427C20.0537 2.93427 21.4395 2.93427 22.8276 2.93427C26.3681 2.93427 29.9109 2.93427 33.4514 2.93427C34.3244 2.93427 35.4828 2.72145 36.3317 2.93427C37.2047 3.15434 36.854 4.24985 36.5759 4.88588C35.9979 6.21597 34.6969 6.98984 33.2749 7.03579C31.4127 7.09625 31.4031 9.99827 33.2749 9.93781C36.5034 9.83382 39.2772 7.5509 39.7077 4.28854C40.0245 1.89196 38.5082 0.0806117 36.085 0.0322447C32.5107 -0.0403059 28.9291 0.0322447 25.3548 0.0322447C23.4153 0.0322447 21.4757 0.0322447 19.5362 0.0322447C18.3367 0.0322447 17.0139 -0.117693 15.9426 0.528007C13.0357 2.27889 14.4408 6.56179 16.5447 8.34654C18.1021 9.66938 19.9062 9.93781 21.8603 9.93781C25.6643 9.93781 29.4708 9.93781 33.2749 9.93781C35.1418 9.93781 35.1467 7.03579 33.2749 7.03579Z" fill="#6F8BB5"/>
</svg>
