<svg width="106" height="61" viewBox="0 0 106 61" fill="none" xmlns="http://www.w3.org/2000/svg">
<rect y="10.1667" width="29.3706" height="19.2038" rx="5" fill="#F3F4FA"/>
<rect x="62.1299" y="13.5557" width="29.3706" height="19.2038" rx="5" fill="#F3F4FA"/>
<rect x="31.6299" y="32.7595" width="29.3706" height="19.2038" rx="5" fill="#F3F4FA"/>
<path d="M52.1971 33.5884C45.7289 33.5884 39.2578 33.5884 32.7896 33.5884C29.1161 33.5884 25.4456 33.5884 21.7721 33.5884C21.1188 33.5884 20.4538 33.63 19.8035 33.5884C17.6972 33.4543 17.29 31.7986 17.29 30.0297C17.29 27.9809 17.29 25.932 17.29 23.8832C17.29 22.4865 16.959 20.5419 18.0224 19.4609C18.828 18.642 19.824 18.7165 20.8493 18.7165C22.147 18.7165 23.4448 18.7165 24.7425 18.7165C32.9039 18.7165 41.0653 18.7165 49.2296 18.7165C50.1846 18.7165 51.1571 18.6629 52.1121 18.7165C54.11 18.8266 54.6988 20.3335 54.6988 22.0935C54.6988 24.3716 54.6988 26.6527 54.6988 28.9308C54.6959 30.8993 54.8687 33.4663 52.1971 33.5884C49.8447 33.6956 49.8301 37.4269 52.1971 37.3197C55.6714 37.1619 58.2463 34.5353 58.3665 31.0005C58.4309 29.1452 58.3665 27.2781 58.3665 25.4198C58.3665 23.6152 58.6096 21.5574 58.1878 19.7796C57.4993 16.888 54.9595 15.0774 52.1092 14.9851C44.3872 14.7349 36.6184 14.9851 28.8906 14.9851C25.9084 14.9851 22.9145 14.9017 19.9324 14.9851C17.1846 15.0625 14.7414 16.6676 13.8948 19.4073C13.3617 21.1256 13.6165 23.2132 13.6165 24.988C13.6165 26.9713 13.555 28.9636 13.6165 30.9439C13.7161 34.1691 15.9103 36.9147 19.1473 37.2661C21.6666 37.5401 24.306 37.3168 26.8341 37.3168C35.0951 37.3168 43.3678 37.4448 51.6288 37.3168C51.8163 37.3138 52.0067 37.3168 52.1941 37.3168C54.5582 37.3197 54.5641 33.5884 52.1971 33.5884Z" fill="#B6CDE2"/>
<path d="M40.8871 11.0244C37.6266 11.0244 34.3632 11.0244 31.1028 11.0244C29.1781 11.0244 29.1752 14.0649 31.1028 14.0649C34.3632 14.0649 37.6266 14.0649 40.8871 14.0649C42.8117 14.0649 42.8146 11.0244 40.8871 11.0244Z" fill="#B6CDE2"/>
<path d="M98.8191 22.5639C92.351 22.5639 85.8799 22.5639 79.4117 22.5639C75.7382 22.5639 72.0676 22.5639 68.3941 22.5639C67.7409 22.5639 67.0759 22.6056 66.4256 22.5639C64.3193 22.4299 63.9121 20.7742 63.9121 19.0053C63.9121 16.9565 63.9121 14.9076 63.9121 12.8588C63.9121 11.4621 63.5811 9.51753 64.6445 8.43653C65.4501 7.61759 66.4461 7.69204 67.4714 7.69204C68.7691 7.69204 70.0668 7.69204 71.3646 7.69204C79.526 7.69204 87.6873 7.69204 95.8516 7.69204C96.8066 7.69204 97.7792 7.63844 98.7342 7.69204C100.732 7.80222 101.321 9.30907 101.321 11.069C101.321 13.3472 101.321 15.6283 101.321 17.9064C101.318 19.8748 101.491 22.4418 98.8191 22.5639C96.4668 22.6711 96.4522 26.4025 98.8191 26.2953C102.293 26.1375 104.868 23.5109 104.989 19.9761C105.053 18.1208 104.989 16.2537 104.989 14.3954C104.989 12.5908 105.232 10.533 104.81 8.75517C104.121 5.86358 101.582 4.05298 98.7313 3.96066C91.0093 3.71052 83.2405 3.96066 75.5126 3.96066C72.5305 3.96066 69.5366 3.87728 66.5545 3.96066C63.8067 4.03809 61.3635 5.64321 60.5169 8.38293C59.9838 10.1012 60.2386 12.1888 60.2386 13.9636C60.2386 15.9469 60.1771 17.9392 60.2386 19.9195C60.3382 23.1446 62.5324 25.8903 65.7694 26.2417C68.2887 26.5157 70.9281 26.2923 73.4562 26.2923C81.7172 26.2923 89.9899 26.4204 98.2508 26.2923C98.4383 26.2894 98.6287 26.2923 98.8162 26.2923C101.18 26.2953 101.186 22.5639 98.8191 22.5639Z" fill="#B6CDE2"/>
<path d="M87.5086 0C84.2482 0 80.9848 0 77.7244 0C75.7997 0 75.7968 3.04049 77.7244 3.04049C80.9848 3.04049 84.2482 3.04049 87.5086 3.04049C89.4333 3.04049 89.4362 0 87.5086 0Z" fill="#B6CDE2"/>
<path d="M84.907 57.1828C78.4389 57.1828 71.9678 57.1828 65.4996 57.1828C61.8261 57.1828 58.1555 57.1828 54.482 57.1828C53.8288 57.1828 53.1638 57.2245 52.5135 57.1828C50.4072 57.0488 50 55.3931 50 53.6242C50 51.5754 50 49.5265 50 47.4777C50 46.081 49.669 44.1364 50.7324 43.0554C51.538 42.2365 52.534 42.3109 53.5593 42.3109C54.857 42.3109 56.1547 42.3109 57.4525 42.3109C65.6138 42.3109 73.7752 42.3109 81.9395 42.3109C82.8945 42.3109 83.8671 42.2573 84.8221 42.3109C86.82 42.4211 87.4088 43.928 87.4088 45.6879C87.4088 47.9661 87.4088 50.2472 87.4088 52.5253C87.4058 54.4967 87.5787 57.0637 84.907 57.1828C82.5547 57.29 82.5401 61.0214 84.907 60.9142C88.3813 60.7564 90.9563 58.1298 91.0764 54.595C91.1409 52.7397 91.0764 50.8726 91.0764 49.0143C91.0764 47.2097 91.3196 45.1519 90.8977 43.3741C90.2093 40.4825 87.6695 38.6719 84.8192 38.5796C77.0972 38.3294 69.3284 38.5796 61.6005 38.5796C58.6184 38.5796 55.6245 38.4962 52.6423 38.5796C49.8945 38.657 47.4514 40.2621 46.6048 43.0018C46.0716 44.7201 46.3265 46.8076 46.3265 48.5825C46.3265 50.5658 46.265 52.5581 46.3265 54.5384C46.4261 57.7635 48.6203 60.5092 51.8573 60.8606C54.3766 61.1346 57.016 60.9112 59.5441 60.9112C67.8051 60.9112 76.0778 61.0393 84.3387 60.9112C84.5262 60.9083 84.7166 60.9112 84.9041 60.9112C87.2682 60.9142 87.274 57.1828 84.907 57.1828Z" fill="#B6CDE2"/>
<path d="M73.597 34.6217C70.3366 34.6217 67.0732 34.6217 63.8127 34.6217C61.8881 34.6217 61.8852 37.6622 63.8127 37.6622C67.0732 37.6622 70.3366 37.6622 73.597 37.6622C75.5216 37.6622 75.5246 34.6217 73.597 34.6217Z" fill="#B6CDE2"/>
</svg>
