<svg width="54" height="71" viewBox="0 0 54 71" fill="none" xmlns="http://www.w3.org/2000/svg">
<path d="M48.7101 67.5279C41.8855 67.5279 35.0635 67.5279 28.2389 67.5279C23.3171 67.5279 18.3977 67.5279 13.4758 67.5279C10.8214 67.5279 8.14727 67.6216 5.49287 67.5279C2.94691 67.4367 3.29935 65.0165 3.29935 63.2247C3.29935 59.8925 3.29935 56.5628 3.29935 53.2306C3.29935 43.2538 3.29935 33.277 3.29935 23.3002C3.29935 19.1867 3.29935 15.0733 3.29935 10.9623C3.29935 9.1705 3.18351 7.33682 3.29935 5.54503C3.47434 2.8093 7.18607 3.50432 9.06904 3.50432C13.3846 3.50432 17.7002 3.50432 22.0157 3.50432C30.5384 3.50432 39.0611 3.50432 47.5813 3.50432C48.5844 3.50432 49.6245 3.39095 50.3195 4.31025C50.8026 4.94859 50.7237 5.70523 50.7237 6.44955C50.7237 9.23211 50.7237 12.0171 50.7237 14.7997C50.7237 24.5769 50.7237 34.3565 50.7237 44.1337C50.7237 51.0864 50.7237 58.0416 50.7237 64.9943C50.7237 66.2734 50.1963 67.4565 48.7101 67.5279C46.8148 67.6191 46.8049 70.5767 48.7101 70.4855C51.574 70.3499 53.595 68.2254 53.6813 65.3812C53.7034 64.664 53.6813 63.9419 53.6813 63.2222C53.6813 59.72 53.6813 56.2202 53.6813 52.718C53.6813 42.3518 53.6813 31.9855 53.6813 21.6193C53.6813 17.6217 53.6813 13.6216 53.6813 9.62399C53.6813 7.60053 54.0657 4.87712 53.0257 3.05329C51.2585 -0.0422769 47.5074 0.544304 44.5054 0.544304C39.936 0.544304 35.3691 0.544304 30.7997 0.544304C22.4544 0.544304 14.1092 0.497476 5.76644 0.544304C3.64933 0.559092 1.68995 1.45868 0.785431 3.48707C0.354121 4.45567 0.339334 5.42673 0.339334 6.44955C0.339334 9.35781 0.339334 12.2636 0.339334 15.1719C0.339334 25.336 0.339334 35.5001 0.339334 45.6642C0.339334 52.2374 0.137234 58.8475 0.339334 65.4207C0.425596 68.2377 2.47616 70.377 5.31542 70.488C5.98333 70.5151 6.65864 70.488 7.32655 70.488C11.3192 70.488 15.3095 70.488 19.3022 70.488C28.5223 70.488 37.7425 70.488 46.9627 70.488C47.5443 70.488 48.126 70.488 48.7076 70.488C50.6128 70.4855 50.6177 67.5279 48.7101 67.5279Z" fill="#6F8BB5"/>
<path d="M43.8227 20.4486C38.3833 20.4486 32.9438 20.4486 27.502 20.4486C23.6571 20.4486 19.8123 20.4486 15.9675 20.4486C14.0673 20.4486 12.1227 20.5694 10.2274 20.4486C8.2335 20.3205 8.18421 18.6322 8.18421 17.0918C8.18421 16.1405 8.18421 15.1867 8.18421 14.2353C8.18421 13.5156 8.12752 12.8083 8.58841 12.1946C9.60876 10.8391 12.7265 11.3887 14.1782 11.3887C21.7052 11.3887 29.2346 11.3887 36.7616 11.3887C39.0364 11.3887 41.3113 11.3665 43.5861 11.3887C44.9417 11.4035 45.8191 12.2661 45.8314 13.6315C45.8486 15.2064 45.93 16.8232 45.8314 18.3956C45.7648 19.5466 45.0033 20.392 43.8227 20.4486C41.9274 20.5398 41.9176 23.4974 43.8227 23.4062C46.7679 23.2657 48.7618 21.0525 48.7939 18.1442C48.8136 16.4683 48.9072 14.7406 48.7791 13.0671C48.5696 10.3856 46.3761 8.51738 43.7512 8.43112C42.9995 8.40647 42.2429 8.43112 41.4887 8.43112C33.5132 8.43112 25.5401 8.43112 17.5646 8.43112C15.1517 8.43112 12.7265 8.35965 10.3136 8.43112C7.88845 8.50259 5.77134 10.0528 5.32031 12.5101C4.99991 14.2501 5.21926 16.1824 5.22912 17.9421C5.24391 20.6384 6.81634 23.0513 9.66791 23.3643C10.3358 23.4382 11.0161 23.4062 11.6864 23.4062C15.0581 23.4062 18.4297 23.4062 21.8013 23.4062C28.998 23.4062 36.2095 23.5491 43.4062 23.4062C43.5467 23.4037 43.6847 23.4062 43.8252 23.4062C45.7254 23.4062 45.7279 20.4486 43.8227 20.4486Z" fill="#6F8BB5"/>
<path d="M45.9004 4.4877C42.6767 4.4877 39.4505 4.4877 36.2268 4.4877C34.3241 4.4877 34.3216 7.44525 36.2268 7.44525C39.4505 7.44525 42.6767 7.44525 45.9004 7.44525C47.8031 7.44525 47.8056 4.4877 45.9004 4.4877Z" fill="#6F8BB5"/>
<path d="M23.6251 26.5338C23.6251 30.5388 23.6251 34.5463 23.6251 38.5513C23.6251 39.1971 23.6966 39.8724 23.3737 40.4565C22.8931 41.3265 22.0453 41.499 21.1457 41.5015C18.9374 41.5089 16.7291 41.5015 14.5208 41.5015C12.5663 41.5015 10.6119 41.5015 8.65744 41.5015C6.75474 41.5015 6.75228 44.459 8.65744 44.459C12.835 44.459 17.015 44.4886 21.1925 44.459C24.192 44.4393 26.4767 42.4627 26.5827 39.3918C26.6541 37.3116 26.5827 35.2167 26.5827 33.1341C26.5827 30.9332 26.5827 28.7347 26.5827 26.5338C26.5827 24.6311 23.6251 24.6287 23.6251 26.5338Z" fill="#6F8BB5"/>
<path d="M12.554 36.237C15.4377 36.237 18.3237 36.237 21.2073 36.237C23.11 36.237 23.1125 33.2795 21.2073 33.2795C18.3237 33.2795 15.4377 33.2795 12.554 33.2795C10.6514 33.2795 10.6489 36.237 12.554 36.237Z" fill="#6F8BB5"/>
<path d="M15.4031 30.4304C15.4031 33.314 15.4031 36.2001 15.4031 39.0837C15.4031 40.9864 18.3606 40.9888 18.3606 39.0837C18.3606 36.2001 18.3606 33.314 18.3606 30.4304C18.3606 28.5277 15.4031 28.5252 15.4031 30.4304Z" fill="#6F8BB5"/>
<path d="M43.9313 26.5338C43.9313 30.5388 43.9313 34.5463 43.9313 38.5513C43.9313 39.1971 44.0027 39.8724 43.6799 40.4565C43.1993 41.3265 42.3514 41.499 41.4519 41.5015C39.2435 41.5089 37.0352 41.5015 34.8269 41.5015C32.8725 41.5015 30.918 41.5015 28.9636 41.5015C27.0609 41.5015 27.0584 44.459 28.9636 44.459C33.1411 44.459 37.3211 44.4886 41.4987 44.459C44.4981 44.4393 46.7828 42.4627 46.8888 39.3918C46.9603 37.3116 46.8888 35.2167 46.8888 33.1341C46.8888 30.9332 46.8888 28.7347 46.8888 26.5338C46.8888 24.6311 43.9313 24.6287 43.9313 26.5338Z" fill="#6F8BB5"/>
<path d="M32.8601 36.237C35.7437 36.237 38.6298 36.237 41.5134 36.237C43.4161 36.237 43.4186 33.2795 41.5134 33.2795C38.6298 33.2795 35.7437 33.2795 32.8601 33.2795C30.9549 33.2795 30.9525 36.237 32.8601 36.237Z" fill="#6F8BB5"/>
<path d="M23.6251 46.8399C23.6251 50.8449 23.6251 54.8524 23.6251 58.8574C23.6251 59.5031 23.6966 60.1784 23.3737 60.7625C22.8931 61.6325 22.0453 61.8051 21.1457 61.8075C18.9374 61.8149 16.7291 61.8075 14.5208 61.8075C12.5663 61.8075 10.6119 61.8075 8.65744 61.8075C6.75474 61.8075 6.75228 64.7651 8.65744 64.7651C12.835 64.7651 17.015 64.7947 21.1925 64.7651C24.192 64.7454 26.4767 62.7687 26.5827 59.6978C26.6541 57.6177 26.5827 55.5227 26.5827 53.4401C26.5827 51.2392 26.5827 49.0408 26.5827 46.8399C26.5827 44.9347 23.6251 44.9322 23.6251 46.8399Z" fill="#6F8BB5"/>
<path d="M14.8683 59.1679C16.909 57.1272 18.9473 55.089 20.988 53.0482C22.3361 51.7001 20.2437 49.6076 18.8955 50.9558C16.8548 52.9965 14.8166 55.0347 12.7758 57.0754C11.4302 58.4236 13.5202 60.5161 14.8683 59.1679Z" fill="#6F8BB5"/>
<path d="M43.9313 46.8399C43.9313 50.8449 43.9313 54.8524 43.9313 58.8574C43.9313 59.5031 44.0027 60.1784 43.6799 60.7625C43.1993 61.6325 42.3514 61.8051 41.4519 61.8075C39.2435 61.8149 37.0352 61.8075 34.8269 61.8075C32.8725 61.8075 30.918 61.8075 28.9636 61.8075C27.0609 61.8075 27.0584 64.7651 28.9636 64.7651C33.1411 64.7651 37.3211 64.7947 41.4987 64.7651C44.4981 64.7454 46.7828 62.7687 46.8888 59.6978C46.9603 57.6177 46.8888 55.5227 46.8888 53.4401C46.8888 51.2392 46.8888 49.0408 46.8888 46.8399C46.8888 44.9347 43.9313 44.9322 43.9313 46.8399Z" fill="#6F8BB5"/>
<path d="M35.1719 59.1679C37.2126 57.1272 39.2509 55.089 41.2916 53.0482C42.6397 51.7001 40.5472 49.6076 39.1991 50.9558C37.1584 52.9965 35.1201 55.0347 33.0794 57.0754C31.7337 58.4236 33.8237 60.5161 35.1719 59.1679Z" fill="#6F8BB5"/>
<path d="M33.0819 53.0483C35.1227 55.089 37.1609 57.1272 39.2016 59.1679C40.5498 60.5161 42.6422 58.4236 41.2941 57.0755C39.2534 55.0347 37.2151 52.9965 35.1744 50.9558C33.8238 49.6101 31.7338 51.7001 33.0819 53.0483Z" fill="#6F8BB5"/>
</svg>
