<svg width="20" height="20" viewBox="0 0 20 20" fill="none" xmlns="http://www.w3.org/2000/svg">
<path d="M0.629704 14.5383L5.2748 19.1834C5.37497 19.2839 5.49404 19.3637 5.62514 19.418C5.75625 19.4723 5.8968 19.5002 6.03872 19.5H19.0059V17.339H11.4877L19.2911 9.53556C20.1339 8.69385 20.1339 7.3216 19.2911 6.47989L13.9416 1.13138C13.5359 0.727042 12.9865 0.5 12.4137 0.5C11.841 0.5 11.2915 0.727042 10.8859 1.13138L5.75347 6.26271L0.616738 11.4956C0.219103 11.903 -0.0024061 12.4504 1.97162e-05 13.0196C0.00244553 13.5889 0.228612 14.1343 0.629704 14.5383ZM12.4137 2.65921L17.7622 8.00773L14.968 10.8019L9.61952 5.45341L12.4137 2.65921ZM7.28887 7.78298L8.09169 6.98124L13.4402 12.3298L8.51633 17.2536C8.49004 17.2808 8.46515 17.3093 8.44177 17.339H6.48605L2.15862 13.0094L7.28887 7.78298Z" fill="#E76100"/>
</svg>
