<svg width="47" height="43" viewBox="0 0 47 43" fill="none" xmlns="http://www.w3.org/2000/svg">
<path d="M28.3901 12.6953C28.3901 11.209 27.03 10 25.3579 10H13.5322C11.8602 10 10.5 11.209 10.5 12.6953V23.207C10.5 24.6933 11.8602 25.9023 13.5322 25.9023H18.3838V27.6992H20.4053V25.9023H25.3579C27.03 25.9023 28.3901 24.6933 28.3901 23.207V18.8945H30.3611V17.0977H28.3901V12.6953ZM26.3687 23.207C26.3687 23.7024 25.9152 24.1055 25.3579 24.1055H13.5322C12.9749 24.1055 12.5215 23.7024 12.5215 23.207V12.6953C12.5215 12.1999 12.9749 11.7969 13.5322 11.7969H25.3579C25.9152 11.7969 26.3687 12.1999 26.3687 12.6953V23.207ZM34.3535 29.4062H36.375V31.2031C36.375 32.1954 35.4699 33 34.3535 33H32.3826V31.2031H34.3535V29.4062ZM24.2966 31.2031H26.3181V33H24.2966V31.2031ZM28.3396 31.2031H30.3611V33H28.3396V31.2031ZM36.375 18.8945V20.6914H34.3535V18.8945H32.3826V17.0977H34.3535C35.4699 17.0977 36.375 17.9022 36.375 18.8945ZM34.3535 22.3984H36.375V24.1953H34.3535V22.3984ZM34.3535 25.9023H36.375V27.6992H34.3535V25.9023ZM20.4053 31.2031H22.3762V33H20.4053C19.2889 33 18.3838 32.1954 18.3838 31.2031V29.4062H20.4053V31.2031ZM22.2751 16.918H24.2966V22.3086H18.2322V20.5117H20.8457L17.2394 17.3061L18.6688 16.0357L22.2751 19.2411V16.918Z" fill="#607697"/>
</svg>
