<svg width="10" height="10" viewBox="0 0 10 10" fill="none" xmlns="http://www.w3.org/2000/svg">
<path d="M6.89545 4.89193L9.73835 2.11048C10.0872 1.76916 10.0872 1.21576 9.73835 0.874155L9.10653 0.255993C8.75767 -0.0853308 8.19205 -0.0853308 7.8429 0.255993L5 3.03744L2.1571 0.255993C1.80824 -0.0853308 1.24261 -0.0853308 0.893466 0.255993L0.261648 0.874155C-0.0872159 1.21548 -0.0872159 1.76888 0.261648 2.11048L3.10455 4.89193L0.261648 7.67338C-0.0872159 8.01471 -0.0872159 8.5681 0.261648 8.90971L0.893466 9.52787C1.24233 9.86919 1.80824 9.86919 2.1571 9.52787L5 6.74642L7.8429 9.52787C8.19176 9.86919 8.75767 9.86919 9.10653 9.52787L9.73835 8.90971C10.0872 8.56838 10.0872 8.01498 9.73835 7.67338L6.89545 4.89193Z" fill="#D8E0F0"/>
</svg>
