<svg width="15" height="19" viewBox="0 0 15 19" fill="none" xmlns="http://www.w3.org/2000/svg">
<path d="M14.1309 2.40507H12.6321V0.874587C12.6322 0.393538 12.2467 0 11.7759 0H0.856394C0.385367 0 0 0.393538 0 0.874587V14.8678C0 15.3488 0.385367 15.7424 0.856428 15.7424H2.35517V17.2729C2.35517 17.7539 2.74036 18.1475 3.2116 18.1475H10.4909C10.9618 18.1475 11.6281 17.8777 11.9708 17.5482L14.3632 15.2485C14.7064 14.919 14.9869 14.2556 14.9869 13.7746L14.9873 3.27973C14.9873 2.79864 14.6019 2.40507 14.1309 2.40507ZM2.3551 3.27969V15.0865H0.856394C0.740364 15.0865 0.642312 14.9863 0.642312 14.8678V0.874587C0.642312 0.756097 0.740364 0.655967 0.856394 0.655967H11.7759C11.8918 0.655967 11.99 0.756097 11.99 0.874587V2.40511H3.21153C2.74029 2.40511 2.3551 2.79864 2.3551 3.27969ZM13.923 14.7709L11.5306 17.0705C11.4816 17.1175 11.4178 17.1636 11.3473 17.2075V15.1958C11.3473 15.0456 11.4066 14.9104 11.5045 14.8099C11.6032 14.7099 11.7355 14.6492 11.8826 14.6492H14.0247C13.9915 14.6953 13.9575 14.7377 13.923 14.7709ZM14.3445 13.7746C14.3445 13.8395 14.3329 13.9147 14.3154 13.9932H11.8825C11.2328 13.9945 10.7063 14.5321 10.705 15.1957V17.465C10.6285 17.4808 10.5549 17.4915 10.4909 17.4915H3.21153V17.4915C3.09525 17.4915 2.99745 17.3914 2.99745 17.2729V3.27966C2.99745 3.16117 3.09529 3.06104 3.21153 3.06104H14.1308C14.2469 3.06104 14.3449 3.16117 14.3449 3.27966L14.3445 13.7746Z" fill="#607697"/>
<path d="M11.776 5.46606H5.56701C5.38951 5.46606 5.24585 5.61277 5.24585 5.79403C5.24585 5.97529 5.38954 6.122 5.56701 6.122H11.776C11.9533 6.122 12.0972 5.97529 12.0972 5.79403C12.0972 5.61277 11.9533 5.46606 11.776 5.46606Z" fill="#607697"/>
<path d="M11.776 9.83911H5.56701C5.38951 9.83911 5.24585 9.98581 5.24585 10.1671C5.24585 10.3483 5.38954 10.495 5.56701 10.495H11.776C11.9533 10.495 12.0972 10.3483 12.0972 10.1671C12.0972 9.98578 11.9533 9.83911 11.776 9.83911Z" fill="#607697"/>
<path d="M8.99265 12.0256H5.56701C5.38951 12.0256 5.24585 12.1723 5.24585 12.3536C5.24585 12.5349 5.38951 12.6816 5.56701 12.6816H8.99265C9.16994 12.6816 9.3136 12.5349 9.3136 12.3536C9.3136 12.1723 9.16994 12.0256 8.99265 12.0256Z" fill="#607697"/>
<path d="M11.776 7.65234H5.56701C5.38951 7.65234 5.24585 7.79905 5.24585 7.98031C5.24585 8.16157 5.38954 8.30828 5.56701 8.30828H11.776C11.9533 8.30828 12.0972 8.16157 12.0972 7.98031C12.0972 7.79905 11.9533 7.65234 11.776 7.65234Z" fill="#607697"/>
</svg>
