<svg width="16" height="17" viewBox="0 0 16 17" fill="none" xmlns="http://www.w3.org/2000/svg">
<rect x="0.477661" y="0.821289" width="15.2496" height="15.5729" rx="5" fill="#607697"/>
<path d="M10.8821 12.0583C10.7287 12.0583 10.5753 11.9986 10.4583 11.8789L4.46565 5.75921C4.2315 5.52009 4.2315 5.13286 4.46565 4.89388C4.69967 4.6549 5.07899 4.65477 5.313 4.89388L11.3057 11.0136C11.5398 11.2527 11.5398 11.64 11.3057 11.8789C11.1887 11.9986 11.0354 12.0583 10.8821 12.0583Z" fill="#B6CDE2"/>
<path d="M4.88926 12.0584C4.7359 12.0584 4.58266 11.9986 4.46565 11.879C4.2315 11.64 4.2315 11.2527 4.46565 11.0137L10.4583 4.89393C10.6925 4.65482 11.0717 4.65482 11.3057 4.89393C11.5397 5.13291 11.5398 5.52027 11.3057 5.75925L5.313 11.879C5.196 11.9986 5.04263 12.0584 4.88926 12.0584Z" fill="#B6CDE2"/>
</svg>
