<svg width="23" height="21" viewBox="0 0 23 21" fill="none" xmlns="http://www.w3.org/2000/svg">
<path d="M21.3184 1.90031C20.5271 1.19699 19.475 0.809648 18.356 0.809648L4.23489 0.80957C1.92478 0.809688 0.0454102 2.48027 0.0454541 4.53355L0.0454102 17.0857C0.0454541 19.139 1.92486 20.8096 4.23494 20.8096H18.356C20.666 20.8096 22.5454 19.139 22.5454 17.0856V4.53359C22.5454 3.53887 22.1096 2.60367 21.3184 1.90031ZM21.2271 17.0856C21.2271 18.4929 19.9391 19.6377 18.356 19.6377H4.23494C2.65181 19.6377 1.36381 18.4928 1.36377 17.0856L1.36381 4.53352C1.36377 3.12637 2.65176 1.98152 4.23494 1.98145L18.356 1.98152C19.1229 1.98152 19.8439 2.24695 20.3862 2.72895C20.9284 3.21098 21.2271 3.85188 21.2271 4.53359V17.0856Z" fill="#607697"/>
<path d="M4.94092 5.98144L17.6499 5.98145C18.0139 5.98145 18.3091 5.7191 18.3091 5.39551C18.3091 5.07191 18.0139 4.80957 17.6499 4.80957L4.94092 4.80957C4.57688 4.80957 4.28174 5.07191 4.28174 5.39551C4.28174 5.71914 4.57688 5.98144 4.94092 5.98144Z" fill="#607697"/>
<path d="M7.3343 12.0884C7.59168 12.3172 8.00908 12.3173 8.26651 12.0884L10.636 9.9822L10.636 16.2327C10.636 16.5563 10.9311 16.8186 11.2952 16.8186C11.6592 16.8186 11.9544 16.5563 11.9544 16.2327L11.9543 9.98208L14.3239 12.0884C14.5813 12.3172 14.9987 12.3172 15.2561 12.0884C15.5136 11.8595 15.5136 11.4886 15.2561 11.2597L11.7613 8.15325C11.6376 8.04333 11.47 7.98161 11.2952 7.98161C11.1204 7.98161 10.9527 8.04337 10.829 8.15325L7.33425 11.2598C7.07687 11.4886 7.07686 11.8596 7.3343 12.0884Z" fill="#607697"/>
</svg>
