<svg width="81" height="79" viewBox="0 0 81 79" fill="none" xmlns="http://www.w3.org/2000/svg">
<path d="M40.472 51.8036C53.0936 51.8036 63.3254 41.5683 63.3254 28.9426C63.3254 16.3168 53.0936 6.08154 40.472 6.08154C27.8505 6.08154 17.6187 16.3168 17.6187 28.9426C17.6187 41.5683 27.8505 51.8036 40.472 51.8036Z" fill="#D8E0F0"/>
<path d="M4.10905 62.4455C2.19523 58.6165 1.12573 54.2808 1.12573 49.7199C1.12573 34.1789 13.7345 21.5659 29.2703 21.5659C44.8061 21.5659 57.4148 34.1789 57.4148 49.7199C57.4148 65.2608 44.8061 77.8738 29.2703 77.8738C21.615 77.8738 14.6351 74.7769 9.5691 69.8218" fill="white"/>
<path d="M29.2703 79.0002C21.5587 79.0002 14.2974 76.0158 8.7811 70.6103C8.33079 70.1598 8.33079 69.4841 8.7811 69.0337C9.23141 68.5832 9.90688 68.5832 10.3572 69.0337C15.4232 74.0451 22.1779 76.7478 29.2703 76.7478C44.1869 76.7478 56.2891 64.6416 56.2891 49.7201C56.2891 34.7985 44.1869 22.6923 29.2703 22.6923C14.3537 22.6923 2.25156 34.7985 2.25156 49.7201C2.25156 53.9995 3.20848 58.1099 5.12231 61.8826C5.40375 62.4456 5.1786 63.1213 4.61571 63.4029C4.05281 63.6844 3.37735 63.4592 3.0959 62.8961C1.06949 58.8419 0 54.3936 0 49.7201C0 33.5597 13.1154 20.4399 29.2703 20.4399C45.4253 20.4399 58.5407 33.5597 58.5407 49.7201C58.5407 65.8804 45.369 79.0002 29.2703 79.0002Z" fill="#607697"/>
<path d="M45.9318 37.445C44.1869 35.6995 41.2035 35.8684 39.2334 37.7829L24.2605 52.7608L19.3071 47.8057C17.3932 45.8912 14.3536 45.7223 12.6087 47.4678C10.8637 49.2134 11.0326 52.1977 12.9464 54.1122L20.5454 61.7137C21.5586 62.7273 22.797 63.234 24.0916 63.234C24.1479 63.234 24.2042 63.234 24.2042 63.234C24.2605 63.234 24.3168 63.234 24.4294 63.234C25.6677 63.1777 26.9624 62.671 27.9756 61.7137L45.5941 44.0894C47.5079 42.1749 47.6768 39.1906 45.9318 37.445Z" fill="#607697"/>
<path d="M71.5996 50.3394H50.9978C49.7594 50.3394 48.8025 51.3529 48.8025 52.5354C48.8025 53.7741 49.8157 54.7314 50.9978 54.7314H71.5996C72.8379 54.7314 73.7948 53.7178 73.7948 52.5354C73.7948 51.2966 72.8379 50.3394 71.5996 50.3394Z" fill="#B6CDE2"/>
<path d="M78.7483 62.0513H43.8491C42.6107 62.0513 41.6538 63.0648 41.6538 64.2473C41.6538 65.486 42.667 66.4433 43.8491 66.4433H78.8046C80.043 66.4433 80.9999 65.4297 80.9999 64.2473C80.9999 63.0648 79.9867 62.0513 78.7483 62.0513Z" fill="#B6CDE2"/>
<path d="M20.8269 0H18.125V6.30649H20.8269V0Z" fill="#607697"/>
<path d="M20.8269 9.854H18.125V16.1605H20.8269V9.854Z" fill="#607697"/>
<path d="M27.5435 9.41421V6.71143L21.2391 6.71143V9.41421L27.5435 9.41421Z" fill="#607697"/>
<path d="M17.7148 9.44838V6.74561L11.4105 6.74561V9.44838L17.7148 9.44838Z" fill="#607697"/>
<path d="M7.26132 17.7935H5.51636V21.9039H7.26132V17.7935Z" fill="#607697"/>
<path d="M7.26132 24.2124H5.51636V28.3229H7.26132V24.2124Z" fill="#607697"/>
<path d="M11.623 23.912V22.1665H7.51394V23.912H11.623Z" fill="#607697"/>
<path d="M5.23242 23.9418V22.1963H1.12332V23.9418H5.23242Z" fill="#607697"/>
</svg>
