<svg width="70" height="70" viewBox="0 0 70 70" fill="none" xmlns="http://www.w3.org/2000/svg">
<path d="M27.5338 2.8602C37.7445 2.92455 47.2069 9.35275 50.7153 19.0153C54.2715 28.8114 51.2564 39.9088 43.2718 46.5873C35.3277 53.2324 23.6439 54.038 14.7989 48.7133C5.98247 43.4053 1.25844 32.8156 3.3106 22.7073C5.63925 11.2476 15.8691 2.93408 27.5338 2.8602C29.3738 2.84828 29.3786 -0.0118802 27.5338 3.71384e-05C16.0335 0.0715411 5.64163 7.31251 1.64694 18.1072C-2.34536 28.8996 1.10351 41.5343 10.0105 48.8086C18.939 56.0997 31.7906 57.1555 41.7082 51.185C51.6258 45.2144 56.7717 33.4448 54.5432 22.1067C52.3623 11.0069 43.0525 2.04982 31.8621 0.348023C30.4273 0.128744 28.9853 0.009571 27.5338 3.71384e-05C25.6913 -0.0118802 25.6913 2.84828 27.5338 2.8602Z" fill="#6F8BB5"/>
<path d="M27.5338 7.67953C35.7758 7.74389 43.4124 12.9255 46.2154 20.7481C49.0565 28.6779 46.5753 37.6135 40.0875 42.9691C33.6831 48.258 24.3066 48.8396 17.2324 44.5541C10.1798 40.2806 6.39005 31.7835 8.03226 23.6797C9.90566 14.4319 18.1262 7.75104 27.5338 7.67953C29.3738 7.66523 29.3786 4.80507 27.5338 4.81937C18.0094 4.89326 9.42897 10.8853 6.14694 19.84C2.88874 28.7232 5.75367 39.1151 13.0781 45.0904C20.4596 51.1158 31.0899 51.9834 39.2795 47.0234C47.4309 42.0849 51.6425 32.4128 49.8263 23.0791C47.7718 12.5251 38.195 4.9028 27.5362 4.81937C25.6914 4.80507 25.6914 7.66523 27.5338 7.67953Z" fill="#6F8BB5"/>
<path d="M29.2737 12.0556C34.4792 12.6395 38.9649 15.85 41.4079 20.443C42.2731 22.0685 44.7424 20.6241 43.8772 18.9986C40.9264 13.4547 35.4802 9.89138 29.2737 9.1954C27.4456 8.99043 27.4599 11.853 29.2737 12.0556Z" fill="#6F8BB5"/>
<path d="M48.3199 43.217C54.2214 49.1185 60.1229 55.0199 66.0243 60.9214C66.2484 61.1454 66.5034 61.3599 66.706 61.603C67.6689 62.7614 66.6702 63.6266 65.867 64.4274C64.7277 65.5667 63.0664 68.1337 61.3861 66.5297C58.3233 63.6028 55.3845 60.5281 52.3885 57.5321C49.3234 54.4669 46.2582 51.4018 43.1955 48.3391C41.8917 47.0353 39.8682 49.0589 41.1719 50.3626C47.245 56.4357 53.2251 62.6208 59.4007 68.5914C60.2706 69.4327 61.3337 70 62.5755 70C64.1938 70 65.2878 69.0538 66.3556 67.986C67.1827 67.1589 68.0646 66.3652 68.8392 65.4881C70.3765 63.7458 70.286 61.2741 68.7296 59.5819C66.072 56.6907 63.1523 54.0046 60.3755 51.2278C57.0315 47.8838 53.6851 44.5374 50.3411 41.1934C49.0398 39.8921 47.0162 41.9132 48.3199 43.217Z" fill="#6F8BB5"/>
<path d="M47.8457 55.0104C50.2267 52.6293 52.6102 50.2458 54.9913 47.8648C56.295 46.561 54.2715 44.5374 52.9677 45.8412C50.5866 48.2223 48.2032 50.6057 45.8221 52.9868C44.5207 54.2906 46.5419 56.3141 47.8457 55.0104Z" fill="#6F8BB5"/>
</svg>
