<svg width="64" height="70" viewBox="0 0 64 70" fill="none" xmlns="http://www.w3.org/2000/svg">
<path d="M56.6754 18.4554C56.612 24.8924 52.5882 30.8732 46.461 33.0596C40.3094 35.2557 33.3892 33.3841 29.1849 28.3867C24.9756 23.3844 24.473 16.0079 27.833 10.4322C31.1492 4.93213 37.7741 1.93565 44.0941 3.1972C51.3681 4.64664 56.6022 11.0642 56.6754 18.4554C56.6949 20.3391 59.6231 20.344 59.6036 18.4554C59.5279 10.7055 54.6794 3.76087 47.3931 1.0816C40.1972 -1.5635 31.7519 0.769265 26.9107 6.69879C22.0231 12.6869 21.2935 21.3006 25.305 27.9572C29.302 34.5871 37.1275 38.0033 44.7114 36.5685C53.3251 34.9385 59.5182 27.1252 59.6036 18.4554C59.6231 16.5691 56.6949 16.5691 56.6754 18.4554Z" fill="#6F8BB5"/>
<path d="M44.8676 12.8284C42.6129 10.93 39.1577 9.94904 37.3227 12.9724C36.0587 15.0514 37.0787 17.4159 39.1113 18.4724C40.5461 19.2167 43.0814 19.4631 43.0912 21.4689C43.0936 21.791 43.24 21.1639 43.0619 21.5714C42.996 21.7227 43.1302 21.5128 42.9375 21.8276C42.7715 22.096 42.6349 22.2961 42.3323 22.5157C41.1781 23.36 39.5896 22.7427 38.4623 22.1839C36.781 21.3469 35.295 23.8724 36.9835 24.7119C39.531 25.9783 42.774 26.5322 44.8627 24.136C46.2804 22.5084 46.4488 20.1146 45.0091 18.4139C44.3039 17.5818 43.3547 17.0962 42.3665 16.6838C41.6393 16.3812 40.6144 16.1006 40.0557 15.6419C39.5872 15.2563 39.5701 14.7488 39.9507 14.3096C40.7609 13.3701 42.0614 14.2827 42.8008 14.905C44.2283 16.1031 46.3122 14.0436 44.8676 12.8284Z" fill="#6F8BB5"/>
<path d="M39.675 10.6006C39.675 11.2081 39.675 11.8182 39.675 12.4258C39.675 13.192 40.3485 13.9265 41.1391 13.8899C41.9322 13.8533 42.6032 13.2457 42.6032 12.4258C42.6032 11.8182 42.6032 11.2081 42.6032 10.6006C42.6032 9.83435 41.9297 9.09987 41.1391 9.13648C40.3461 9.17308 39.675 9.78067 39.675 10.6006Z" fill="#6F8BB5"/>
<path d="M39.675 24.4825C39.675 25.0901 39.675 25.7001 39.675 26.3077C39.675 27.0739 40.3485 27.8084 41.1391 27.7718C41.9322 27.7352 42.6032 27.1276 42.6032 26.3077C42.6032 25.7001 42.6032 25.0901 42.6032 24.4825C42.6032 23.7163 41.9297 22.9818 41.1391 23.0184C40.3461 23.055 39.675 23.6626 39.675 24.4825Z" fill="#6F8BB5"/>
<path d="M30.4903 50.4284C32.9939 49.672 35.5243 49.6281 38.1206 49.672C40.2899 49.7086 42.547 49.6915 44.6211 48.9668C46.3805 48.3519 48.1618 47.2294 48.9402 45.4652C49.7186 43.6986 49.0256 41.683 47.3663 40.6996C45.3385 39.4966 42.5617 39.809 40.3021 39.7382C37.8205 39.6626 35.3291 39.4796 32.8719 39.1184C30.5342 38.7744 28.5138 37.9032 26.2908 37.1834C24.2216 36.5124 22.0255 36.2635 20.049 37.3152C18.131 38.3351 16.3961 39.9847 15.0638 41.6806C13.6021 43.5375 12.3089 45.4262 10.3128 46.7682C8.75604 47.8126 10.2201 50.3504 11.7916 49.2962C13.2996 48.2836 14.5709 47.0806 15.6909 45.6531C16.6816 44.394 17.5698 43.0495 18.746 41.9465C19.9026 40.8607 21.3911 39.4478 23.0699 39.5113C25.0659 39.5869 26.8204 40.6045 28.6846 41.1877C32.5156 42.3906 36.7981 42.5639 40.7828 42.6786C41.9028 42.7103 43.0277 42.7274 44.1453 42.8055C44.809 42.8518 46.0047 42.9079 46.2999 43.6595C46.8002 44.943 44.3186 46.002 43.4572 46.2656C41.2855 46.9269 38.9966 46.7316 36.759 46.7243C34.375 46.717 32.0056 46.9122 29.7144 47.6028C27.9135 48.1494 28.6797 50.975 30.4903 50.4284Z" fill="#6F8BB5"/>
<path d="M21.2275 60.0474C23.265 58.4613 25.4782 57.805 28.0379 57.966C30.7343 58.1368 33.3794 58.7371 36.0928 58.7566C41.6051 58.7932 46.6244 56.4653 50.9093 53.1394C55.3308 49.7086 59.0911 45.3798 62.2779 40.7972C63.6346 38.8451 64.2446 36.117 61.9143 34.592C59.6279 33.0937 57.2293 34.8335 55.4504 36.2976C54.3548 37.2005 53.3177 38.1667 52.3978 39.2502C51.8634 39.8773 51.3534 40.5361 50.88 41.2096C50.5262 41.7147 50.2456 42.3199 49.7356 42.6859C48.7205 43.413 47.4663 43.923 46.3682 44.5233C44.7138 45.4262 46.1901 47.9566 47.8469 47.0513C48.7766 46.5437 49.7063 46.0362 50.636 45.5286C52.3734 44.5819 53.103 42.9567 54.3328 41.4829C55.0697 40.602 55.8725 39.7968 56.7364 39.0403C57.5465 38.3302 58.4981 37.3957 59.5376 37.0345C60.665 36.6441 60.7089 37.7031 60.2965 38.4669C59.7133 39.5454 58.8788 40.5288 58.1443 41.5097C55.182 45.4676 51.5877 49.2669 47.4736 52.0414C45.4459 53.4078 43.2595 54.5498 40.895 55.2062C38.4012 55.8968 35.8708 55.926 33.3086 55.6698C30.9075 55.4307 28.4845 54.8451 26.059 55.0452C23.4212 55.2648 21.2202 56.3726 19.1558 57.9806C17.6698 59.1324 19.7561 61.1919 21.2275 60.0474Z" fill="#6F8BB5"/>
<path d="M20.62 63.3416C19.9856 63.8687 19.3536 64.3958 18.7191 64.9228C17.97 65.5451 17.2184 66.3625 16.3839 66.8652C15.3371 67.4972 14.466 65.9331 13.8462 65.1864C10.9253 61.675 8.00206 58.1661 5.08122 54.6548C4.56635 54.035 4.05148 53.4176 3.53662 52.7978C3.30236 52.5172 2.99735 52.2293 2.93634 51.9364C2.77285 51.1312 3.9734 50.448 4.50047 50.0087C5.38624 49.2718 6.27201 48.5349 7.15777 47.798C7.74585 47.31 8.20215 47.0171 8.87807 47.6955C9.18309 48.003 9.44174 48.3739 9.71992 48.7057C11.0278 50.2796 12.3382 51.851 13.6461 53.4249C15.3835 55.5112 17.1184 57.5976 18.8558 59.6839C19.5707 60.5452 21.74 62.2631 20.62 63.3416C19.2608 64.652 21.3325 66.7212 22.6917 65.4133C24.2338 63.9273 24.2973 61.7433 22.9869 60.0889C22.7088 59.7376 22.4111 59.3984 22.1256 59.0519C20.559 57.1705 18.9924 55.2868 17.4259 53.4054C15.7226 51.3581 14.017 49.3109 12.3138 47.2636C10.9937 45.6775 9.70772 43.8938 7.29686 44.4355C6.12316 44.699 5.23495 45.6092 4.33454 46.3583C3.37313 47.1587 2.39463 47.9444 1.44786 48.7618C0.159469 49.8721 -0.387121 51.5899 0.296117 53.2029C0.566972 53.8398 1.03304 54.3473 1.46982 54.8719C4.6908 58.742 7.90934 62.6096 11.1303 66.4796C12.5407 68.1731 13.9023 70.4034 16.4864 69.9373C17.8334 69.6933 18.8558 68.6099 19.8709 67.7656C20.8128 66.9823 21.7547 66.199 22.6966 65.4157C24.1411 64.2054 22.0597 62.1435 20.62 63.3416Z" fill="#6F8BB5"/>
</svg>
