<svg width="155" height="32" viewBox="0 0 155 32" fill="none" xmlns="http://www.w3.org/2000/svg">
<path d="M33.9226 19.8692L38.4316 19.9044C40.2324 19.9044 41.6548 19.3765 42.6953 18.3207C43.361 17.6627 43.9566 16.7934 44.4716 15.7165C44.7518 15.2238 44.9866 14.791 45.1828 14.4038H41.5497C41.5847 14.4637 41.6092 14.52 41.6303 14.5904V14.6256C41.6303 14.8965 41.3605 15.4103 40.835 16.174C40.5302 16.6773 39.6683 16.9377 38.2284 16.9377H35.5518L36.9426 14.4038H33.6844L28.9688 22.8852H32.241C32.3916 22.6952 32.9522 21.6887 33.9226 19.8692Z" fill="white"/>
<path d="M35.6151 10.9029L34.1787 13.486H45.593C45.7436 13.1095 45.8277 12.8068 45.8137 12.6062C45.8032 12.3352 45.7436 12.1381 45.6736 11.9974C45.2882 11.2689 44.577 10.9522 43.7326 10.9522H43.0775L35.6467 10.917H35.6116V10.9029H35.6151Z" fill="white"/>
<path d="M46.4231 22.8608L51.1773 14.4006H47.8595L43.1404 22.8855H46.3986L46.4231 22.8608Z" fill="white"/>
<path d="M53.0247 11.0182H49.6824L48.3511 13.4817H51.6688L53.0247 11.0182Z" fill="white"/>
<path d="M66.5546 22.8608L71.3088 14.4006H67.991L63.2719 22.8855H66.5301L66.5546 22.8608Z" fill="white"/>
<path d="M73.1543 11.0182H69.812L68.4807 13.4817H71.7985L73.1543 11.0182Z" fill="white"/>
<path d="M85.9809 22.8608L90.7245 14.4006H87.4068L82.6981 22.8855H85.9563L85.9809 22.8608Z" fill="white"/>
<path d="M92.5715 11.0182H89.2293L87.8979 13.4817H91.2157L92.5715 11.0182Z" fill="white"/>
<path d="M57.7081 22.8608C58.2337 22.8151 58.6541 22.7447 58.9589 22.6497C60.2201 22.252 61.2256 21.5482 61.9508 20.5135L64.7676 15.4212C64.9883 15.0446 65.1775 14.7068 65.3387 14.4006H61.7651C61.7757 14.4358 61.7897 14.471 61.7897 14.5167C61.7897 14.8229 61.2747 15.7133 60.3638 17.487C59.4423 19.1657 58.6225 19.8695 57.4769 19.8695H54.0785V19.8343L57.0705 14.4006H53.7422L49.0791 22.8855H52.3618L57.7081 22.8608Z" fill="white"/>
<path d="M66.0158 12.606C66.0158 12.3491 65.9703 12.138 65.8757 11.962C65.5008 11.2687 64.6845 10.9168 63.4443 10.9168H55.6981L55.6631 10.952L54.2617 13.4999H65.7811C65.9457 13.1198 66.0158 12.8172 66.0158 12.606Z" fill="white"/>
<path d="M78.5647 22.5332C79.6963 22.1707 80.6913 21.3964 81.5567 20.1858C82.5026 18.6726 82.9826 17.6977 82.9826 17.2649V17.008L82.9125 16.6807C82.6322 16.0824 81.942 15.7762 80.8314 15.7762H75.9721C76.1123 15.5404 76.298 14.9562 77.0827 14.3932H73.32C72.6193 15.5088 72.1043 16.6103 72.3636 17.293C72.5738 17.8561 73.4251 18.1623 75.0753 18.1623H79.409C79.3635 18.4332 79.0832 18.8661 78.4736 19.3131C77.9481 19.7002 77.4331 19.8163 77.0127 19.8163H71.2074C71.1269 19.8163 70.7415 19.8163 70.3316 19.8163L68.6149 22.8675H77.0372C77.4541 22.8499 77.9691 22.7443 78.5647 22.5332Z" fill="white"/>
<path d="M86.6608 10.9381H78.7746C76.7426 10.9381 75.1765 11.7018 74.0905 13.2151C74.0204 13.3101 73.9749 13.391 73.9048 13.486H85.2735L86.6608 10.9381Z" fill="white"/>
<path d="M112.517 12.5356C112.507 12.43 112.472 12.2083 112.447 12.1027C112.307 11.3742 111.421 11.0223 109.84 11.0223H95.224L93.8472 13.4998H112.282C112.447 13.0846 112.538 12.7678 112.517 12.5356Z" fill="white"/>
<path d="M111.802 14.4006H108.344C108.354 14.4358 108.379 14.471 108.379 14.5167V14.6575C108.228 15.0341 106.578 17.8248 103.821 22.8714H107.093L111.802 14.4006Z" fill="white"/>
<path d="M96.6491 14.4006H93.3559L88.6718 22.8855H91.8949L96.6491 14.4006Z" fill="white"/>
<path d="M104.336 14.4006H101.028L96.3444 22.8855H99.5816L104.336 14.4006Z" fill="white"/>
<path d="M122.41 14.5521V14.6577C122.41 14.9744 121.965 16.0056 121.218 17.4027C120.483 18.93 119.418 19.8556 118.24 19.8556H116.054C115.448 19.8556 115.154 19.655 115.154 19.2468V19.1764C115.154 18.835 115.855 17.6737 116.391 16.6777C116.766 15.9985 117.641 14.8231 118.297 14.4008H114.439C113.984 15.1856 113.353 16.3012 112.558 17.7687C111.472 19.553 110.922 20.7495 110.922 21.3478C110.922 21.4991 110.957 21.6997 111.027 21.9214C111.318 22.495 111.868 22.8118 112.687 22.8821H117.957C118.927 22.8364 119.687 22.6956 120.223 22.4246C120.914 22.1537 121.649 21.58 122.445 20.6861C122.76 20.2533 123.681 18.5852 125.226 15.6994C125.517 15.2067 125.752 14.7738 125.952 14.3867H122.354C122.389 14.4465 122.41 14.4923 122.41 14.5521Z" fill="white"/>
<path d="M126.594 12.2754C126.338 11.3851 125.602 10.9381 124.408 10.9381H119.584C117.972 10.9381 116.5 11.7123 115.18 13.2503C115.134 13.3101 115.075 13.391 115.015 13.486H126.384C126.548 13.0884 126.629 12.7576 126.629 12.5253L126.594 12.2754Z" fill="white"/>
<path d="M18.1158 22.8608C19.1073 20.9816 19.6573 19.9962 19.7519 19.9047H24.6813L23.1152 22.8608H26.3034C26.398 22.7553 27.7398 20.3481 30.3323 15.6429C30.6021 15.1854 30.8333 14.7736 31.0225 14.4006H27.498C27.5085 14.4464 27.5226 14.4956 27.5226 14.5519V14.6927C27.5226 14.8581 27.1021 15.6183 26.2718 16.9696H21.339C21.339 16.8993 22.4496 14.5871 23.2098 14.4006H19.4961L16.2134 20.3024C15.7825 21.0872 15.313 21.9353 14.812 22.8608V22.8855H18.0842L18.1158 22.8608Z" fill="white"/>
<path d="M31.657 12.6412C31.657 12.5005 31.622 12.2295 31.587 12.1028C31.3522 11.2828 30.4308 10.952 29.1906 10.952L24.2262 10.9872C23.501 11.047 22.8143 11.2582 22.1452 11.6312C21.6196 11.8424 20.9189 12.4653 20.0291 13.4753C20.0291 13.4753 20.0186 13.4858 20.0186 13.4999H31.4433C31.573 13.1339 31.657 12.9228 31.657 12.6412Z" fill="white"/>
<path d="M5.27543 19.7634H10.38L8.6843 22.885H12.1527L13.8344 19.8443C13.8449 19.8197 13.8589 19.7986 13.8694 19.7739C14.1252 19.2461 14.1497 19.2003 14.1252 18.9645C14.0796 18.4718 11.3679 18.2712 10.8775 18.2712L10.902 18.1199C10.902 18.1199 13.6592 18.1199 14.1952 17.9791C14.7313 17.8384 15.2007 17.321 15.6457 16.582L16.7913 14.4705H16.0661H13.2143C13.2143 14.4705 13.0391 14.9737 12.7343 15.4664C12.3244 16.1104 11.6482 16.5679 10.2328 16.6277C10.1032 16.6277 9.98758 16.6383 9.85795 16.6383H6.9711C6.9711 16.5574 7.367 15.8289 8.15177 14.4669C8.21133 14.3614 8.26738 14.2558 8.33745 14.1396H4.94961L0.111328 22.885H3.49917L5.27543 19.7634Z" fill="white"/>
<path d="M17.3662 13.496L17.3907 13.4608C17.6359 12.9082 17.7516 12.4859 17.7516 12.229L17.7165 11.9581C17.6359 11.6167 17.4608 11.3492 17.226 11.124C16.7706 10.6911 16.0454 10.48 15.0539 10.48H7.00294L5.33179 13.496H8.74416H17.3662Z" fill="white"/>
<path d="M17.366 13.4969C17.366 13.4863 17.3764 13.4722 17.3764 13.4615L17.366 13.4969Z" fill="white"/>
<path d="M14.2476 8.77631H15.9432C16.0939 8.52996 18.3501 4.40894 18.3501 4.40894H16.5493C16.5388 4.47932 16.5248 4.57434 16.4793 4.70103L14.2476 8.77631Z" fill="#E76100"/>
<path d="M23.64 3.93111L24.3407 2.66418L20.1926 2.67474L19.5024 3.93111C20.1085 3.93111 20.7882 3.94167 21.4188 3.94167C22.624 3.93111 23.64 3.93111 23.64 3.93111Z" fill="#E76100"/>
<path d="M27.9893 8.77789L28.8547 7.25054H24.5524L25.0184 6.38129H27.4007L28.1014 5.139H25.7296C25.8697 4.86802 26.0344 4.57593 26.1255 4.39996H24.4263C23.8763 5.40998 23.0354 6.93381 22.0439 8.76733H27.9893V8.77789Z" fill="#E76100"/>
<path d="M30.7562 8.74175L31.6426 7.18273H34.1651L33.3138 8.75583L35.0304 8.73119L35.8713 7.21792C35.8818 7.20737 35.8818 7.19329 35.8818 7.18273C36.0114 6.92583 36.0219 6.90119 36.0114 6.78506C35.9869 6.53871 34.6451 6.44369 34.4103 6.44369L34.4208 6.36275C34.4208 6.36275 35.7872 6.36275 36.0465 6.29236C36.3162 6.22198 36.5474 5.96507 36.7577 5.59907L37.3778 4.39198H35.612C35.612 4.39198 35.4719 4.80373 35.3072 5.05007C35.1075 5.3668 34.7712 5.58852 34.0705 5.62371C34.0109 5.62371 33.9549 5.62371 33.8848 5.62371H32.4589C32.4589 5.58852 32.6586 5.22604 33.044 4.5433C33.079 4.48348 33.1035 4.43773 33.1386 4.3779H31.4674L29.0605 8.71008H30.7562V8.74175Z" fill="#E76100"/>
<path d="M37.6978 3.56866L37.6733 3.43844C37.6277 3.27304 37.5437 3.13227 37.428 3.02669C37.2073 2.81554 36.843 2.70996 36.3525 2.70996H32.369L31.6929 3.94169H37.6032C37.6628 3.77981 37.6978 3.66016 37.6978 3.56866Z" fill="#E76100"/>
<path d="M9.65466 8.75567L12.0966 4.40237H10.3904L7.95898 8.7803H9.64065L9.65466 8.75567Z" fill="#E76100"/>
<path d="M13.0472 2.66418H11.3305L10.6543 3.93111H12.3605L13.0472 2.66418Z" fill="#E76100"/>
<path d="M18.4763 3.93111L18.4868 3.92055C18.5919 3.68476 18.6374 3.5088 18.6374 3.40322L18.6269 3.28709C18.5919 3.14632 18.5218 3.03019 18.4167 2.93517C18.231 2.7592 17.9262 2.66418 17.4953 2.66418H14.0969L13.3962 3.93111H14.8327H18.4763Z" fill="#E76100"/>
<path d="M20.4622 4.40237L18.0308 8.7803H19.7019L19.7124 8.75567L22.1543 4.40237H20.4622Z" fill="#E76100"/>
<path d="M12.4365 8.77789L12.4611 8.75326L14.903 4.39996H13.1968L10.7654 8.77789H12.4365Z" fill="#E76100"/>
<path d="M31.3768 2.66418H25.3718C25.3473 2.68882 25.1161 3.11113 24.6606 3.93111H30.6761L31.3768 2.66418Z" fill="#E76100"/>
<path d="M147.096 4.52926C148.339 4.52926 149.352 3.51572 149.352 2.26287C149.352 1.01002 148.343 0 147.096 0C145.852 0 144.839 1.01354 144.839 2.26639C144.839 3.51924 145.852 4.52926 147.096 4.52926Z" fill="white"/>
<path d="M146.279 17.8949C146.198 17.8351 146.114 17.7788 146.023 17.7295C145.999 17.7189 145.964 17.6943 145.929 17.6837L144.632 16.9553L139.318 13.8689V13.8795L139.293 13.8689L130.962 28.3646L130.577 29.0227C130.531 29.0931 130.482 29.1741 130.436 29.2585C130.426 29.2831 130.412 29.3043 130.401 29.3395L130.391 29.35C130.286 29.5858 130.226 29.8533 130.226 30.1348C130.226 31.1659 130.997 32 131.957 32C132.517 32 133.018 31.7079 133.334 31.2504L133.814 30.4163L136.021 26.5663L145.109 24.124C145.214 24.0993 145.319 24.0782 145.424 24.043L145.519 24.0184V24.0078C146.77 23.5503 147.67 22.2588 147.67 20.756C147.67 20.0874 147.495 19.4645 147.19 18.9366C146.969 18.5178 146.654 18.1659 146.279 17.8949ZM141.406 21.4775L138.508 22.2517L140.589 18.6375L141.651 19.2463L144.187 20.7138L141.406 21.4775Z" fill="white"/>
<path d="M131.151 16.383L131.432 17.1678L132.213 17.0376L132.423 17.0024L136.242 16.3584L134.606 15.3976L137.724 9.96393L142.128 9.0243V9.01374C142.839 8.82722 143.378 8.13393 143.378 7.29987C143.378 6.32504 142.653 5.54025 141.753 5.54025C141.613 5.54025 141.473 5.56489 141.343 5.60008L135.489 6.84237L135.478 6.83181L131.575 13.6134L129.775 12.5576L131.06 16.1824L131.151 16.383Z" fill="white"/>
<path d="M129.607 12.6518L127.155 16.8537L130.868 16.2203L129.607 12.6518Z" fill="white"/>
<path d="M133.778 20.8054L136.255 16.5576L132.492 17.2017L133.778 20.8054Z" fill="white"/>
<path d="M132.283 17.241L131.502 17.3712L131.292 17.4064L131.222 17.2058L130.942 16.421L127.158 17.065L133.573 20.8306L132.283 17.241Z" fill="white"/>
<path d="M152.575 5.15247C151.955 5.15247 151.419 5.49383 151.139 5.99708C151.093 6.07803 151.044 6.17304 151.023 6.26806L150.859 6.63055L149.657 9.34036H146.104L144.328 12.5569V12.5675H151.819V12.5429C151.819 12.5429 151.819 12.5323 151.829 12.5429C151.829 12.5429 151.829 12.5429 151.84 12.5429L153.732 8.28107L154.162 7.30624C154.208 7.15491 154.233 6.98951 154.233 6.8241C154.226 5.90206 153.49 5.15247 152.575 5.15247Z" fill="white"/>
</svg>
