<svg width="86" height="72" viewBox="0 0 86 72" fill="none" xmlns="http://www.w3.org/2000/svg">
<rect width="86" height="72" fill="white"/>
<path d="M31.0806 53.8308H40.9612C41.4273 53.8308 41.84 54.0557 42.0626 54.4291C44.6969 57.7914 47.3473 61.1723 49.9629 64.5531L52.6157 67.9526C53.0632 68.5323 52.9519 69.3532 52.3722 69.8007C52.1287 69.9885 51.8505 70.0813 51.5699 70.0813H20.4719C19.7438 70.0813 19.1641 69.483 19.1641 68.7549C19.1641 68.4372 19.2754 68.1381 19.4632 67.9155L22.0951 64.5531L22.1507 64.4789L30.051 54.3363C30.2968 54.0001 30.6887 53.8308 31.0806 53.8308ZM36.0313 56.465H31.7345L24.2261 66.0836L24.1704 66.1578L23.1803 67.4471H48.88L47.8899 66.1578L40.3258 56.465H36.0313Z" fill="#6F8BB5"/>
<path d="M5.21392 2H66.8326C67.7276 2 68.5323 2.37333 69.112 2.95304C69.7103 3.53044 70.065 4.35363 70.065 5.23247V32.465C70.065 33.1931 69.4668 33.7728 68.7387 33.7728C68.421 33.7728 68.1218 33.6615 67.8992 33.4737C65.1723 31.4377 61.8842 30.5403 58.6355 30.7653C55.4424 30.9902 52.2865 32.3351 49.8378 34.7815C48.1566 36.4627 46.9995 38.4801 46.3641 40.5902C45.6917 42.8117 45.5989 45.1467 46.065 47.3891C46.1949 48.0986 45.7473 48.7896 45.0377 48.9404C44.945 48.9589 44.8522 48.9589 44.7757 48.9589V48.9775H3.30783C2.57971 48.9751 2 48.3769 2 47.6488V5.23247C2 4.35363 2.35478 3.55131 2.93449 2.95304C3.51421 2.37333 4.33508 2 5.21392 2ZM66.8302 4.65276H5.21392C5.06551 4.65276 4.91479 4.70841 4.80348 4.81971C4.69218 4.93102 4.63653 5.06319 4.63653 5.23015V46.3409H43.243C42.9995 44.1566 43.2059 41.9514 43.8412 39.8412C44.5879 37.3021 45.9699 34.909 47.9688 32.9311C50.8836 29.9977 54.6378 28.4093 58.4662 28.1311C61.5294 27.9247 64.6482 28.56 67.4308 30.0534V5.23247C67.4308 5.08406 67.3566 4.93334 67.2639 4.82203C67.1479 4.70841 66.9995 4.65276 66.8302 4.65276Z" fill="#6F8BB5"/>
<path d="M5.21392 53.8308H45.9699C45.6337 53.3276 45.3346 52.8221 45.054 52.3004C44.4928 51.236 44.0453 50.116 43.7276 48.9752H4.63421V53.2349C4.63421 53.4018 4.68986 53.5525 4.80116 53.6453C4.91479 53.7566 5.06319 53.8308 5.21392 53.8308ZM48.7317 56.465H5.21392C4.33508 56.465 3.51421 56.0917 2.93449 55.512C2.35478 54.9323 2 54.1299 2 53.2349V47.6511C2 46.923 2.57971 46.3433 3.30783 46.3433H44.7734C45.3717 46.3433 45.9328 46.7723 46.0627 47.3891C46.3062 48.6598 46.7537 49.8934 47.3705 51.0691C47.9688 52.1705 48.7154 53.2163 49.6105 54.1694C49.8911 54.4128 50.058 54.7491 50.058 55.141C50.058 55.8668 49.4598 56.465 48.7317 56.465Z" fill="#6F8BB5"/>
<path d="M17.6706 25.3856H23.106C23.8341 25.3856 24.4324 25.9838 24.4324 26.7119V37.7125C24.4324 38.4407 23.8341 39.0204 23.106 39.0204H17.6706C16.9611 39.0204 16.3628 38.4407 16.3628 37.7125V26.7119C16.3628 25.9838 16.9611 25.3856 17.6706 25.3856ZM21.7982 28.0383H18.997V36.3862H21.7982V28.0383Z" fill="#6F8BB5"/>
<path d="M21.1631 22.4707C20.5648 22.8997 19.744 22.7513 19.3126 22.1716C18.9022 21.5733 19.0321 20.7525 19.6303 20.3235L30.0535 12.9264C30.4269 12.6458 30.893 12.6087 31.3034 12.778L40.9405 16.6435L50.7469 7.37969C51.2895 6.87418 52.1104 6.89273 52.6159 7.43534C53.1005 7.9594 53.0843 8.78027 52.5602 9.28578L42.2135 19.0736C41.8588 19.4655 41.2791 19.6139 40.7573 19.4099L30.988 15.4887L21.1631 22.4707Z" fill="#6F8BB5"/>
<path d="M17.6706 43.2221C16.9611 43.2221 16.3628 42.6238 16.3628 41.8957C16.3628 41.1676 16.9611 40.5879 17.6706 40.5879H44.6967C45.4249 40.5879 46.0046 41.1653 46.0046 41.8957C46.0046 42.6238 45.4249 43.2221 44.6967 43.2221H17.6706Z" fill="#6F8BB5"/>
<path d="M28.0944 20.8267H33.5298C34.2579 20.8267 34.8562 21.425 34.8562 22.1531V37.7125C34.8562 38.4407 34.2579 39.0204 33.5298 39.0204H28.0944C27.3663 39.0204 26.7866 38.4407 26.7866 37.7125V22.1531C26.7866 21.425 27.3663 20.8267 28.0944 20.8267ZM32.222 23.4609H29.4208V36.3862H32.222V23.4609Z" fill="#6F8BB5"/>
<path d="M38.5153 23.1061H43.9507C44.6788 23.1061 45.2771 23.7044 45.2771 24.4325V37.7125C45.2771 38.4407 44.6812 39.0204 43.9507 39.0204H38.5153C37.7872 39.0204 37.2075 38.4407 37.2075 37.7125V24.4325C37.2075 23.7044 37.7872 23.1061 38.5153 23.1061ZM42.6452 25.7589H39.844V36.3862H42.6452V25.7589Z" fill="#6F8BB5"/>
<path d="M48.9381 15.28H54.3734C55.1016 15.28 55.6998 15.8597 55.6998 16.5879V30.3525C55.6998 30.9322 55.3079 31.4354 54.7653 31.6047C53.8703 31.9409 52.9914 32.3699 52.1868 32.894C51.3659 33.3972 50.5984 34.0325 49.8703 34.7421C49.3462 35.2476 48.5253 35.2476 48.0198 34.7421C47.7578 34.4801 47.6279 34.1438 47.6279 33.8076V16.5879C47.6302 15.8597 48.21 15.28 48.9381 15.28ZM53.0471 17.9142H50.2645V31.0064C50.4337 30.8951 50.6007 30.7815 50.77 30.6702C51.5166 30.2041 52.2842 29.7914 53.0494 29.4574V17.9142H53.0471Z" fill="#6F8BB5"/>
<path d="M47.9665 32.9311C51.1804 29.6986 55.4007 28.094 59.621 28.094C63.8413 28.094 68.0639 29.701 71.2755 32.9311C74.5057 36.1427 76.1126 40.3653 76.1126 44.5856C76.1126 48.8059 74.5057 53.0285 71.2755 56.2401C68.0616 59.454 63.8413 61.0772 59.621 61.0772C55.4007 61.0772 51.1781 59.4517 47.9665 56.2401C44.734 53.0262 43.1294 48.8059 43.1294 44.5856C43.1294 40.3653 44.734 36.1427 47.9665 32.9311ZM59.621 30.7259C56.0732 30.7259 52.523 32.0894 49.8332 34.7792C47.1248 37.4876 45.7613 41.0355 45.7613 44.5856C45.7613 48.1358 47.1248 51.665 49.8332 54.3735C52.523 57.0819 56.0709 58.4268 59.621 58.4268C63.1688 58.4268 66.719 57.0819 69.4089 54.3735C72.1173 51.665 73.4807 48.1358 73.4807 44.5856C73.4807 41.0355 72.1173 37.4876 69.4089 34.7792C66.719 32.0894 63.1712 30.7259 59.621 30.7259Z" fill="#6F8BB5"/>
<path d="M51.5327 36.4974C53.7751 34.2551 56.6875 33.1351 59.6209 33.1351C62.5542 33.1351 65.4667 34.2551 67.709 36.4974C69.9513 38.7212 71.0528 41.6522 71.0528 44.5855C71.0528 47.5003 69.9513 50.4313 67.709 52.6737C65.4667 54.8951 62.5542 56.0174 59.6209 56.0174C56.6875 56.0174 53.7751 54.8974 51.5327 52.6737C49.2927 50.4313 48.189 47.5003 48.189 44.5855C48.1913 41.6522 49.2927 38.7212 51.5327 36.4974ZM59.6209 35.7878C57.3623 35.7878 55.12 36.6458 53.4017 38.3641C51.6835 40.0823 50.8232 42.3246 50.8232 44.5832C50.8232 46.8232 51.6835 49.0841 53.4017 50.8023C55.12 52.5206 57.3623 53.3809 59.6209 53.3809C61.8817 53.3809 64.1217 52.5206 65.84 50.8023C67.5583 49.0841 68.4162 46.8232 68.4162 44.5832C68.4162 42.3223 67.5583 40.0823 65.84 38.3641C64.1217 36.6481 61.8817 35.7878 59.6209 35.7878Z" fill="#6F8BB5"/>
<path d="M83.2869 68.2517L82.5958 68.9427C82.2225 69.316 81.7727 69.5966 81.3066 69.7821C80.8196 69.9885 80.2979 70.0813 79.7924 70.0813C79.2683 70.0627 78.7466 69.9514 78.2782 69.745C77.8121 69.541 77.3831 69.2233 77.0283 68.8291L65.9697 57.0053L67.259 56.145C67.6323 55.883 68.0057 55.621 68.379 55.3056C68.7338 55.025 69.0886 54.7073 69.4063 54.3711H69.4248C69.7425 54.0534 70.0416 53.7172 70.3593 53.3438C70.6584 52.9705 70.939 52.5972 71.1802 52.2215L72.0405 50.9323L83.8828 61.9699C84.2747 62.3433 84.5738 62.7723 84.7802 63.2407C84.9842 63.7068 85.0979 64.2308 85.1164 64.7526C85.1164 65.2766 85.0237 65.7798 84.8358 66.2668C84.6295 66.7329 84.3489 67.1827 83.9756 67.556L83.2869 68.2517ZM80.7454 67.0737L82.1089 65.6917C82.2387 65.5804 82.3338 65.4297 82.3895 65.2813C82.4637 65.1143 82.4822 64.945 82.4822 64.7943C82.4822 64.6273 82.4451 64.4766 82.3709 64.3282C82.3153 64.1798 82.2202 64.0291 82.0903 63.9178L72.4532 54.9323L72.3976 55.0065C72.0613 55.4169 71.688 55.8273 71.2776 56.2401C70.8857 56.632 70.4752 57.0053 70.0439 57.3601L69.9697 57.4157L78.9529 67.0343C79.0642 67.1665 79.215 67.2778 79.3634 67.3334C79.5118 67.4076 79.6811 67.4447 79.8295 67.4447C79.9964 67.4447 80.1657 67.4262 80.3141 67.352C80.4671 67.2986 80.6155 67.2036 80.7454 67.0737Z" fill="#6F8BB5"/>
</svg>
