<svg width="97" height="70" viewBox="0 0 97 70" fill="none" xmlns="http://www.w3.org/2000/svg">
<path d="M42.9745 9.12955C38.1952 9.12955 33.4135 9.12955 28.6343 9.12955C25.4939 9.12955 22.3512 9.12955 19.2109 9.12955C17.4223 9.12955 15.4551 8.9461 13.7075 9.38541C10.1834 10.2688 7.92411 13.4116 7.9048 16.9719C7.89515 18.6712 7.9048 20.3705 7.9048 22.0698C7.9048 28.6232 7.9048 35.179 7.9048 41.7323C7.9048 46.4416 7.9048 51.1509 7.9048 55.8577C7.9048 57.7212 10.8013 57.7236 10.8013 55.8577C10.8013 45.563 10.8013 35.2707 10.8013 24.9759C10.8013 22.7432 10.8013 20.5129 10.8013 18.2801C10.8013 16.4095 10.7941 14.6547 12.3606 13.274C14.0116 11.8209 16.0996 12.0237 18.1247 12.0237C20.9923 12.0237 23.8598 12.0237 26.7274 12.0237C32.1439 12.0237 37.5604 12.0237 42.9769 12.0237C44.8379 12.0261 44.8403 9.12955 42.9745 9.12955Z" fill="#6F8BB5"/>
<path d="M83.8106 55.8577C83.8106 50.9192 83.8106 45.9782 83.8106 41.0396C83.8106 39.1762 80.9141 39.1737 80.9141 41.0396C80.9141 45.9782 80.9141 50.9192 80.9141 55.8577C80.9141 57.7212 83.8106 57.7236 83.8106 55.8577Z" fill="#6F8BB5"/>
<path d="M5.02515 69.9807C8.41167 69.9807 11.7982 69.9807 15.1823 69.9807C23.0464 69.9807 30.9104 69.9807 38.7745 69.9807C47.5316 69.9807 56.2912 69.9807 65.0484 69.9807C71.2276 69.9807 77.4069 69.9807 83.5885 69.9807C84.6144 69.9807 85.6523 70.0241 86.6782 69.9807C87.9406 69.9276 89.1474 69.3966 89.7388 68.2307C90.0719 67.5742 90.2747 66.8283 90.5281 66.1404C91.1726 64.3928 92.6064 62.0394 90.9819 60.4125C90.0261 59.4566 88.7661 59.4301 87.5254 59.4301C86.2195 59.4301 84.9137 59.4301 83.6103 59.4301C79.4224 59.4301 75.2369 59.4301 71.049 59.4301C67.3632 59.4301 63.6798 59.4301 59.9939 59.4301C59.3181 59.4301 58.6374 59.3987 57.9615 59.4301C56.7353 59.4856 55.8591 59.9925 55.0119 60.8373C54.575 61.2718 54.3457 61.5373 53.7302 61.5639C50.1385 61.7159 46.5058 61.5639 42.9093 61.5639C41.3403 61.5639 39.769 61.588 38.2024 61.5639C37.7872 61.5566 37.5145 61.5615 37.1621 61.3008C36.1049 60.5163 35.5738 59.6039 34.1038 59.4566C31.929 59.2394 29.648 59.4325 27.466 59.4325C23.1646 59.4325 18.8633 59.4325 14.562 59.4325C11.1827 59.4325 7.80098 59.4325 4.4217 59.4325C3.37413 59.4325 2.32655 59.3698 1.37553 59.9249C-0.989967 61.3032 0.26278 63.6638 0.972428 65.5852C1.2476 66.3335 1.50587 67.0938 1.80276 67.8324C2.37241 69.2469 3.54309 69.8769 5.02515 69.9807C6.88616 70.1134 6.87651 67.2169 5.02515 67.0842C4.91653 67.0769 4.37584 66.8669 4.61481 67.1011C4.56653 67.0528 4.55205 66.9152 4.52308 66.8524C4.34929 66.4831 4.23585 66.0728 4.09343 65.6914C3.74826 64.7525 3.40068 63.8159 3.05551 62.877C3.00965 62.7514 2.81655 62.4256 2.83827 62.2904C2.79482 62.5511 2.96137 62.3677 3.27275 62.3266C3.48516 62.3001 3.71688 62.3266 3.93171 62.3266C6.86444 62.3266 9.79717 62.3266 12.7299 62.3266C19.6188 62.3266 26.5246 62.1721 33.4111 62.3266C34.6856 62.3556 35.2214 63.7459 36.3921 64.1973C37.4397 64.6004 38.7093 64.4604 39.8124 64.4604C43.7275 64.4604 47.6427 64.4604 51.5554 64.4604C52.6078 64.4604 53.8123 64.6004 54.8478 64.3494C56.0957 64.0452 56.4698 63.1087 57.4498 62.498C57.7081 62.3387 57.9181 62.3387 58.1957 62.329C60.7905 62.2325 63.4094 62.329 66.0066 62.329C73.2238 62.329 80.441 62.329 87.6581 62.329C87.9019 62.329 88.165 62.3001 88.4088 62.329C88.5319 62.3435 88.6574 62.3604 88.7805 62.3773C89.0919 62.4208 88.8674 62.387 88.865 62.3218C88.8699 62.387 88.7926 62.5511 88.7612 62.6042C88.305 63.379 88.0902 64.4194 87.7788 65.2642C87.6244 65.6842 87.4675 66.1066 87.313 66.5266C87.2623 66.6617 87.2309 66.8331 87.1537 66.9562C87.0185 67.1735 87.1175 66.9755 87.1561 66.9514C86.4392 67.3521 85.0658 67.089 84.2958 67.089C78.7272 67.089 73.1586 67.089 67.5925 67.089C59.3036 67.089 51.0147 67.089 42.7258 67.089C34.8424 67.089 26.9591 67.089 19.0757 67.089C14.6078 67.089 10.1399 67.089 5.66962 67.089C5.4548 67.089 5.23997 67.089 5.02515 67.089C3.16172 67.0842 3.1593 69.9807 5.02515 69.9807Z" fill="#6F8BB5"/>
<path d="M54.2878 37.39C55.1134 37.39 55.9364 37.39 56.762 37.39C56.2792 36.9072 55.7964 36.4245 55.3137 35.9417C55.432 38.1141 55.5478 40.2889 55.6661 42.4613C55.7216 43.504 56.8706 44.3368 57.8457 43.7116C59.8105 42.4541 61.7754 41.1965 63.7402 39.9389C64.906 39.1931 66.0743 38.4448 67.2401 37.6989C67.4356 37.5734 67.8581 37.4165 67.986 37.221C67.8532 37.4238 66.936 37.3176 67.5732 37.39C69.637 37.6193 71.8601 37.39 73.9335 37.39C77.1873 37.39 80.4386 37.39 83.6924 37.39C85.5293 37.39 87.371 37.4286 89.2079 37.39C93.3716 37.3007 96.623 34.059 96.7219 29.8952C96.8402 24.9132 96.7219 19.9119 96.7219 14.9274C96.7219 12.6319 96.7219 10.3364 96.7219 8.04094C96.7219 4.59407 94.9212 1.49721 91.5323 0.374804C90.0599 -0.112777 88.4234 0.0151524 86.8906 0.0151524C84.4141 0.0151524 81.9352 0.0151524 79.4586 0.0151524C73.137 0.0151524 66.8129 0.0151524 60.4912 0.0151524C58.6254 0.0151524 56.762 0.0151524 54.8961 0.0151524C51.932 0.0151524 49.1031 1.24859 47.6814 3.99305C46.6579 5.96992 46.81 8.08438 46.81 10.2254C46.81 13.2112 46.81 16.1971 46.81 19.1829C46.81 22.0818 46.81 24.9784 46.81 27.8773C46.81 30.3104 46.8534 32.5986 48.4924 34.619C49.9237 36.3883 52.0261 37.3296 54.2878 37.39C56.1513 37.4407 56.1513 34.5441 54.2878 34.4934C52.2386 34.4379 50.4162 33.1417 49.8658 31.1262C49.6824 30.4552 49.7017 29.7818 49.7017 29.0963C49.7017 26.8128 49.7017 24.5318 49.7017 22.2484C49.7017 17.3726 49.6269 12.4919 49.7017 7.61611C49.7451 4.88614 51.7968 2.9334 54.5003 2.91168C55.9292 2.89961 57.3606 2.91168 58.7895 2.91168C64.6212 2.91168 70.4529 2.91168 76.2845 2.91168C80.5159 2.91168 84.7472 2.88271 88.9785 2.91168C91.653 2.92857 93.7723 4.81131 93.823 7.55094C93.8544 9.28162 93.823 11.0147 93.823 12.7478C93.823 18.1643 93.823 23.5808 93.823 28.9997C93.823 29.5476 93.8544 30.1197 93.765 30.6628C93.444 32.6252 91.8075 34.2159 89.8306 34.4693C88.2979 34.6672 86.6493 34.4959 85.1093 34.4959C79.5938 34.4959 74.0808 34.4959 68.5653 34.4959C68.1525 34.4959 67.7132 34.4524 67.3029 34.4959C66.5305 34.5803 65.9053 35.1186 65.2681 35.5265C62.8616 37.0665 60.4574 38.6065 58.0509 40.1465C57.4957 40.5013 56.9382 40.8586 56.383 41.2134C57.1095 41.631 57.8361 42.0461 58.5626 42.4637C58.4444 40.2913 58.3285 38.1165 58.2102 35.9441C58.1668 35.1621 57.5802 34.4959 56.762 34.4959C55.9364 34.4959 55.1134 34.4959 54.2878 34.4959C52.4244 34.4934 52.4196 37.39 54.2878 37.39Z" fill="#6F8BB5"/>
<path d="M59.6971 16.1102C66.7429 16.1102 73.7886 16.1102 80.8344 16.1102C81.8313 16.1102 82.8282 16.1102 83.8251 16.1102C85.6885 16.1102 85.691 13.2137 83.8251 13.2137C76.7793 13.2137 69.7335 13.2137 62.6877 13.2137C61.6908 13.2137 60.6939 13.2137 59.6971 13.2137C57.8336 13.2137 57.8312 16.1102 59.6971 16.1102Z" fill="#6F8BB5"/>
<path d="M59.6971 24.1601C64.696 24.1601 69.6973 24.1601 74.6962 24.1601C76.5597 24.1601 76.5621 21.2636 74.6962 21.2636C69.6973 21.2636 64.696 21.2636 59.6971 21.2636C57.8336 21.2636 57.8312 24.1601 59.6971 24.1601Z" fill="#6F8BB5"/>
<path d="M25.1971 55.8577C25.0571 54.2453 24.9171 52.6305 24.7771 51.0181C24.6178 49.174 21.7188 49.1571 21.8805 51.0181C22.0205 52.6305 22.1605 54.2453 22.3005 55.8577C22.4598 57.7018 25.3588 57.7187 25.1971 55.8577Z" fill="#6F8BB5"/>
<path d="M36.7011 51.0181C36.5611 52.6305 36.4211 54.2453 36.2811 55.8577C36.1193 57.7139 39.0183 57.7042 39.1776 55.8577C39.3176 54.2453 39.4576 52.6305 39.5976 51.0181C39.7593 49.1619 36.8604 49.1716 36.7011 51.0181Z" fill="#6F8BB5"/>
<path d="M17.6999 55.8408C17.6999 53.4319 17.6323 51.0133 17.6999 48.6067C17.7578 46.543 19.1554 45.3216 21.1178 45.0995C22.3416 44.962 23.5605 44.6723 24.7698 44.4502C26.305 44.1702 27.8353 43.8444 29.3946 43.7502C31.5067 43.6223 33.5536 43.8733 35.6197 44.2499C37.0077 44.5033 38.3932 44.7785 39.7835 45.0126C41.6083 45.3192 43.3631 45.7778 43.7324 47.9212C43.9545 49.2078 43.7807 50.644 43.7807 51.9402C43.7807 53.2412 43.7807 54.5398 43.7807 55.8408C43.7807 57.7042 46.6772 57.7067 46.6772 55.8408C46.6772 53.2557 46.8776 50.5957 46.6483 48.0202C46.4165 45.4037 44.5893 43.1299 42.0404 42.4275C40.6669 42.0485 39.0063 41.9351 37.4783 41.6551C35.6897 41.3268 33.9035 40.9623 32.0836 40.8513C29.7157 40.7089 27.4057 41.0299 25.0885 41.4547C21.3737 42.1354 16.8551 42.0968 15.2379 46.2364C14.6248 47.803 14.8034 49.5819 14.8034 51.2305C14.8034 52.7657 14.8034 54.3032 14.8034 55.8384C14.8034 57.7042 17.6999 57.7091 17.6999 55.8408Z" fill="#6F8BB5"/>
<path d="M21.8804 30.9355C21.9649 34.6817 24.2314 37.9741 27.7676 39.2775C31.1879 40.5399 35.2189 39.4079 37.5289 36.6103C39.8775 33.7645 40.2637 29.6659 38.3882 26.4628C36.4862 23.2163 32.6965 21.5701 29.0228 22.246C24.8566 23.016 21.9746 26.7935 21.8804 30.9355C21.8394 32.8014 24.7359 32.799 24.777 30.9355C24.8494 27.6818 27.4297 24.9735 30.739 24.9735C33.9927 24.9735 36.701 27.6818 36.701 30.9355C36.701 34.1893 33.9927 36.8976 30.739 36.8976C27.4273 36.8976 24.8494 34.1893 24.777 30.9355C24.7359 29.0745 21.8394 29.0697 21.8804 30.9355Z" fill="#6F8BB5"/>
</svg>
