<svg width="74" height="76" viewBox="0 0 74 76" fill="none" xmlns="http://www.w3.org/2000/svg">
<path d="M25.814 51.6279C40.0706 51.6279 51.6279 40.0706 51.6279 25.814C51.6279 11.5573 40.0706 0 25.814 0C11.5573 0 0 11.5573 0 25.814C0 40.0706 11.5573 51.6279 25.814 51.6279Z" fill="#F3F4FA"/>
<rect x="18.2095" y="19.0698" width="54.7907" height="55.6512" rx="14" fill="white" stroke="#B6CDE2" stroke-width="2"/>
<path d="M45.1634 26.0762C42.8502 26.0762 41.0449 27.3174 41.0449 29.5179C41.0449 36.2317 41.8347 45.8792 41.8347 52.5932C41.8348 54.3421 43.3583 55.0755 45.1636 55.0755C46.5176 55.0755 48.4359 54.3421 48.4359 52.5932C48.4359 45.8794 49.2256 36.2318 49.2256 29.5179C49.2256 27.3176 47.3639 26.0762 45.1634 26.0762Z" fill="#B6CDE2"/>
<path d="M45.2204 58.9684C42.738 58.9684 40.876 60.943 40.876 63.3128C40.876 65.626 42.7379 67.6571 45.2204 67.6571C47.5336 67.6571 49.5084 65.626 49.5084 63.3128C49.5084 60.943 47.5334 58.9684 45.2204 58.9684Z" fill="#B6CDE2"/>
</svg>
