<svg width="86" height="72" viewBox="0 0 86 72" fill="none" xmlns="http://www.w3.org/2000/svg">
<rect width="86" height="72" fill="white"/>
<g clip-path="url(#clip0_3435_24933)">
<path d="M66.8828 36C66.8828 23.3805 56.617 13.1147 43.9975 13.1147C31.3781 13.1147 21.1123 23.3805 21.1123 36C21.1123 48.6194 31.3781 58.8852 43.9975 58.8852C56.617 58.8852 66.8828 48.6194 66.8828 36ZM43.9999 56.1944C32.8666 56.1944 23.8078 47.1379 23.8078 36.0023C23.8078 24.8667 32.8666 15.8103 43.9999 15.8103C55.1332 15.8103 64.1919 24.8667 64.1919 36.0023C64.1919 47.1379 55.1332 56.1944 43.9999 56.1944Z" fill="#6F8BB5"/>
<path d="M67.3039 54.7943L71.2716 56.427C71.8344 56.6061 72.4461 56.3921 72.781 55.9084C73.8694 54.3385 74.8276 52.6826 75.6277 50.9941C75.8812 50.4615 75.7579 49.8242 75.323 49.4265L71.7949 46.1821C72.3879 44.5564 72.8391 42.854 73.1415 41.1004L77.8255 40.0538C78.4023 39.9259 78.8256 39.4375 78.8721 38.8491C78.9558 37.8095 78.9977 36.8792 78.9977 36.0024C78.9977 35.1256 78.9558 34.1953 78.8721 33.158C78.8256 32.5696 78.4 32.0812 77.8255 31.9533L73.1415 30.9044C72.8391 29.1531 72.3879 27.4506 71.7949 25.8226L75.323 22.5782C75.7579 22.1782 75.8812 21.5433 75.6277 21.0107C74.823 19.3152 73.8648 17.6616 72.781 16.0987C72.4461 15.6127 71.8321 15.401 71.2716 15.5801L66.6969 17.0174C65.5712 15.6731 64.3293 14.4312 62.9873 13.3055L64.4246 8.72848C64.6014 8.16565 64.392 7.55398 63.906 7.21907C62.3384 6.13295 60.6848 5.17708 58.994 4.37237C58.4614 4.11654 57.8242 4.24213 57.4265 4.67704L54.1821 8.20518C52.5517 7.61212 50.8516 7.16093 49.1003 6.85858L48.0538 2.17455C47.9258 1.60009 47.4374 1.17448 46.849 1.12797C44.7768 0.960517 43.2279 0.960517 41.1556 1.12797C40.5672 1.17681 40.0788 1.60242 39.9509 2.17455L38.9043 6.85858C37.1507 7.16093 35.4483 7.61212 33.8226 8.20518L30.5758 4.67472C30.1758 4.2398 29.5386 4.11421 29.006 4.37005C27.3059 5.1794 25.6546 6.1376 24.094 7.21675C23.6103 7.55398 23.401 8.16565 23.5777 8.72615L25.015 13.3009C23.6731 14.4242 22.4288 15.6685 21.3055 17.0127L16.7307 15.5754C16.1702 15.3987 15.5562 15.608 15.2213 16.0941C14.1352 17.6616 13.177 19.3152 12.3723 21.0084C12.1188 21.541 12.2421 22.1782 12.677 22.5759L16.2051 25.8203C15.6121 27.446 15.1609 29.1484 14.8585 30.902L10.1745 31.9486C9.59771 32.0765 9.17443 32.5649 9.12792 33.1534C9.04186 34.1953 9 35.1256 9 36.0001C9 36.8769 9.04186 37.8072 9.12559 38.8444C9.1721 39.4328 9.59771 39.9212 10.1722 40.0492L14.8562 41.0981C15.1585 42.8493 15.6097 44.5518 16.2028 46.1798L12.6747 49.4265C12.2397 49.8266 12.1165 50.4615 12.37 50.9941C13.1747 52.6895 14.1329 54.3431 15.2167 55.906C15.5516 56.3921 16.1633 56.5991 16.7261 56.4247L21.3008 54.9874C22.4265 56.3316 23.6684 57.5736 25.0104 58.6992L23.5731 63.2763C23.3963 63.8391 23.6056 64.4508 24.0917 64.7857C25.6616 65.8718 27.3152 66.83 29.006 67.6324C29.5386 67.8882 30.1758 67.7603 30.5735 67.3277L33.8179 63.7996C35.4483 64.3926 37.1484 64.8438 38.8997 65.1462L39.9462 69.8302C40.0742 70.4047 40.5626 70.8303 41.151 70.8768C42.1859 70.9605 43.1185 71.0024 43.9977 71.0024C44.8768 71.0024 45.8094 70.9605 46.8444 70.8768C47.4328 70.8279 47.9212 70.4023 48.0491 69.8302L49.0957 65.1462C50.8493 64.8438 52.5517 64.3926 54.1774 63.7996L57.4218 67.3277C57.8218 67.7626 58.4568 67.8882 58.9917 67.6324C60.6918 66.823 62.3431 65.8648 63.9036 64.7857C64.3874 64.4485 64.5967 63.8368 64.3548 63.0553L63.0059 58.5225M58.7219 64.7624L55.5403 61.3041C55.1612 60.8924 54.5635 60.7552 54.0472 60.9668C52.0843 61.7599 49.9795 62.3158 47.7956 62.6251C47.2397 62.7042 46.7932 63.1158 46.6699 63.6647L45.642 68.2627C44.4838 68.3278 43.5139 68.3278 42.3557 68.2627L41.3277 63.6624C41.2045 63.1158 40.7579 62.7018 40.2021 62.6227C38.0229 62.3157 35.9181 61.7552 33.9482 60.9645C33.4272 60.7552 32.8341 60.8901 32.455 61.3017L29.2734 64.7601C28.3106 64.2647 27.364 63.7158 26.443 63.1205L27.8524 58.6318C28.0199 58.0992 27.8408 57.5154 27.3989 57.1689C25.7011 55.8339 24.1615 54.2966 22.8265 52.5965C22.48 52.1546 21.8962 51.9755 21.3636 52.143L16.8749 53.5547C16.2796 52.636 15.7307 51.6895 15.2353 50.7243L18.6937 47.545C19.1053 47.1659 19.2402 46.5705 19.0309 46.0496C18.2401 44.0866 17.682 41.9818 17.3726 39.798C17.2936 39.2445 16.8796 38.7956 16.333 38.6747L11.7351 37.6443C11.7025 37.0629 11.6862 36.521 11.6862 36.0001C11.6862 35.4791 11.7025 34.9372 11.7351 34.3558L16.3377 33.3278C16.8842 33.2045 17.2982 32.758 17.3773 32.2045C17.6866 30.0206 18.2448 27.9158 19.0355 25.9529C19.2449 25.4342 19.1123 24.8388 18.6983 24.4574L15.2399 21.2781C15.7353 20.313 16.2842 19.3664 16.8819 18.4454L21.3706 19.8571C21.9055 20.0246 22.4869 19.8455 22.8335 19.4036C24.1684 17.7035 25.7081 16.1639 27.4059 14.8335C27.8478 14.487 28.0268 13.9032 27.8594 13.3706L26.45 8.88197C27.3663 8.28891 28.3129 7.73771 29.2804 7.24233L32.462 10.7007C32.8411 11.1124 33.4342 11.2449 33.9551 11.0379C35.9181 10.2449 38.0229 9.689 40.2067 9.37968C40.7626 9.30061 41.2091 8.88895 41.3324 8.34008L42.3604 3.7421C43.5186 3.67698 44.4884 3.67698 45.6466 3.7421L46.6746 8.34008C46.7979 8.88662 47.2444 9.30061 47.8002 9.37968C49.9795 9.68668 52.0843 10.2472 54.0542 11.0379C54.5728 11.2472 55.1659 11.1124 55.5473 10.7007L58.7289 7.24233C59.6917 7.73771 60.6383 8.28659 61.557 8.88197L60.1476 13.3706C59.9801 13.9056 60.1592 14.487 60.6011 14.8335C62.2989 16.1685 63.8385 17.7058 65.1735 19.4059C65.52 19.8478 66.1015 20.0292 66.6364 19.8594L71.1251 18.4477C71.7204 19.3664 72.2693 20.313 72.7647 21.2781L69.3063 24.4574C68.8947 24.8365 68.7598 25.4319 68.9691 25.9529C69.7598 27.9158 70.318 30.0206 70.6273 32.2045C70.7064 32.758 71.1204 33.2068 71.667 33.3278L76.2649 34.3581C76.2975 34.9395 76.3138 35.4814 76.3138 36.0024C76.3138 36.521 76.2975 37.0652 76.2649 37.6467L71.667 38.677C71.1204 38.8002 70.7064 39.2468 70.6273 39.8003C70.318 41.9842 69.7598 44.089 68.9691 46.0519C68.7598 46.5705 68.8923 47.1659 69.3063 47.5473L72.7647 50.7266C72.2693 51.6895 71.7204 52.636 71.1227 53.5594L66.6364 52.1476C66.1061 51.9802 65.52 52.1616 65.1735 52.6012C63.8408 54.2989 62.3035 55.8363 60.6011 57.1736C60.1615 57.5201 59.9801 58.1015 60.1476 58.6364L61.557 63.1251C60.636 63.7158 59.6894 64.2647 58.7219 64.7624Z" fill="#6F8BB5"/>
<path d="M39.7135 26.5784C39.1553 25.0155 37.6762 23.8852 35.9226 23.8852C34.169 23.8852 32.6898 25.0132 32.1316 26.5784H29.1919V29.2716H32.1316C32.6898 30.8345 34.169 31.9648 35.9226 31.9648C37.6762 31.9648 39.1553 30.8368 39.7135 29.2716H58.8078V26.5784H39.7135ZM35.9226 29.2693C35.1807 29.2693 34.576 28.6669 34.576 27.9227C34.576 27.1784 35.1807 26.5761 35.9226 26.5761C36.6645 26.5761 37.2692 27.1784 37.2692 27.9227C37.2692 28.6669 36.6645 29.2693 35.9226 29.2693Z" fill="#6F8BB5"/>
<path d="M50.7305 31.9625C48.9769 31.9625 47.4978 33.0905 46.9396 34.6557H29.1919V37.3489H46.9396C47.4978 38.9118 48.9769 40.0421 50.7305 40.0421C52.4841 40.0421 53.9633 38.9141 54.5215 37.3489H58.8078V34.6557H54.5215C53.9633 33.0905 52.4818 31.9625 50.7305 31.9625ZM50.7305 37.3466C49.9886 37.3466 49.3839 36.7442 49.3839 36C49.3839 35.2581 49.9886 34.6534 50.7305 34.6534C51.4724 34.6534 52.0771 35.2558 52.0771 36C52.0771 36.7442 51.4724 37.3466 50.7305 37.3466Z" fill="#6F8BB5"/>
<path d="M41.3067 40.0398C39.553 40.0398 38.0739 41.1678 37.5157 42.733H29.1919V45.4262H37.5157C38.0739 46.9891 39.553 48.1194 41.3067 48.1194C43.0603 48.1194 44.5394 46.9914 45.0976 45.4262H58.8078V42.733H45.0976C44.5394 41.1678 43.0603 40.0398 41.3067 40.0398ZM41.3067 45.4239C40.5647 45.4239 39.96 44.8215 39.96 44.0773C39.96 43.3354 40.5647 42.7307 41.3067 42.7307C42.0486 42.7307 42.6533 43.333 42.6533 44.0773C42.6533 44.8215 42.0486 45.4239 41.3067 45.4239Z" fill="#6F8BB5"/>
</g>
<defs>
<clipPath id="clip0_3435_24933">
<rect width="70" height="70" fill="white" transform="translate(9 1)"/>
</clipPath>
</defs>
</svg>
