<svg width="109" height="135" viewBox="0 0 109 135" fill="none" xmlns="http://www.w3.org/2000/svg">
<path d="M25.516 91.7972C19.728 84.9627 16.5397 76.2574 16.5397 67.2827C16.5397 47.4676 31.8071 31.1747 51.1932 29.491V38.7978C51.1932 40.0461 51.8947 41.1878 53.0091 41.7507C53.48 41.9877 53.9912 42.1055 54.5008 42.1055C55.1959 42.1055 55.8829 41.8877 56.4651 41.4588L80.5264 23.7144C81.373 23.0902 81.8698 22.1033 81.8698 21.0534C81.8698 20.0019 81.3698 19.015 80.5264 18.3925L56.4635 0.646459C55.4555 -0.0969906 54.1186 -0.206653 53.0075 0.356175C51.8963 0.919003 51.1916 2.06079 51.1916 3.30901V12.9545C22.6841 14.6769 0 38.3495 0 67.2827C0 80.1649 4.58004 92.6681 12.8918 102.486C14.5303 104.418 16.8623 105.412 19.2071 105.412C21.0972 105.412 22.9937 104.768 24.5467 103.452C28.0318 100.501 28.464 95.2822 25.516 91.7972Z" fill="#607697"/>
<path d="M109 67.2828C109 54.4038 104.423 41.9023 96.1083 32.0826C93.1522 28.5928 87.9384 28.1638 84.4534 31.1134C80.9684 34.0646 80.5345 39.2833 83.4842 42.7683C89.2721 49.6061 92.4604 58.3114 92.4604 67.2828C92.4604 87.0979 77.1931 103.392 57.8069 105.076V95.7677C57.8069 94.5195 57.1054 93.3777 55.991 92.8149C54.8799 92.2536 53.5462 92.3649 52.5351 93.1051L28.4737 110.85C27.6271 111.474 27.1304 112.461 27.1304 113.51C27.1304 114.56 27.6271 115.549 28.4737 116.171L52.5351 133.916C53.1172 134.343 53.8042 134.563 54.4993 134.563C55.0089 134.563 55.5201 134.445 55.991 134.208C57.1054 133.645 57.8069 132.503 57.8069 131.255V121.611C86.316 119.892 109 96.2192 109 67.2828Z" fill="#607697"/>
</svg>
